<svg xmlns="http://www.w3.org/2000/svg" xmlns:xlink="http://www.w3.org/1999/xlink" xmlns:lucid="lucid" width="1760" height="1680"><g transform="translate(0 0)" lucid:page-tab-id="B0VWOOIX0NXd"><path d="M0 0h1760v1680H0z" fill="#fff"/><path d="M260 400V86a6 6 0 0 1 6-6h62.33v320zM260 400h68.33v320H260zM260 720h68.33v320H260zM260 1040h68.33v320H260zM328.33 1680H266a6 6 0 0 1-6-6v-314h68.33z" stroke="#5e5e5e" stroke-width="3" fill="#fff"/><path d="M328.33 80h1154a6 6 0 0 1 6 6v314h-1160zM328.33 400h1160v320h-1160zM328.33 720h1160v320h-1160zM328.33 1040h1160v320h-1160zM1488.33 1360v314a6 6 0 0 1-6 6h-1154v-320z" stroke="#5e5e5e" stroke-width="3" fill="none"/><use xlink:href="#a" transform="matrix(-1.8369701987210297e-16,-1,1,-1.8369701987210297e-16,260.00000000000006,400) translate(6.5123456790123555 25.611111111111114)"/><use xlink:href="#b" transform="matrix(-1.8369701987210297e-16,-1,1,-1.8369701987210297e-16,260.00000000000006,400) translate(74.22839506172839 25.611111111111114)"/><use xlink:href="#c" transform="matrix(-1.8369701987210297e-16,-1,1,-1.8369701987210297e-16,260.00000000000006,400) translate(233.3641975308642 25.611111111111114)"/><use xlink:href="#d" transform="matrix(-1.8369701987210297e-16,-1,1,-1.8369701987210297e-16,260.00000000000006,400) translate(117.46913580246914 52.27777777777778)"/><use xlink:href="#e" transform="matrix(-1.8369701987210297e-16,-1,1,-1.8369701987210297e-16,260.0000000000001,720.0000000000001) translate(2.9629629629629903 25.611111111111114)"/><use xlink:href="#f" transform="matrix(-1.8369701987210297e-16,-1,1,-1.8369701987210297e-16,260.0000000000001,720.0000000000001) translate(85.43209876543213 25.611111111111114)"/><use xlink:href="#g" transform="matrix(-1.8369701987210297e-16,-1,1,-1.8369701987210297e-16,260.0000000000001,720.0000000000001) translate(180.30864197530866 25.611111111111114)"/><use xlink:href="#h" transform="matrix(-1.8369701987210297e-16,-1,1,-1.8369701987210297e-16,260.0000000000001,720.0000000000001) translate(212.3456790123457 25.611111111111114)"/><use xlink:href="#i" transform="matrix(-1.8369701987210297e-16,-1,1,-1.8369701987210297e-16,260.0000000000001,720.0000000000001) translate(272.77777777777777 25.611111111111114)"/><use xlink:href="#j" transform="matrix(-1.8369701987210297e-16,-1,1,-1.8369701987210297e-16,260.0000000000001,720.0000000000001) translate(139.04320987654322 52.27777777777778)"/><use xlink:href="#e" transform="matrix(-1.8369701987210297e-16,-1,1,-1.8369701987210297e-16,260.0000000000001,1040.0000000000002) translate(12.098765432098787 25.611111111111114)"/><use xlink:href="#k" transform="matrix(-1.8369701987210297e-16,-1,1,-1.8369701987210297e-16,260.0000000000001,1040.0000000000002) translate(94.56790123456793 25.611111111111114)"/><use xlink:href="#l" transform="matrix(-1.8369701987210297e-16,-1,1,-1.8369701987210297e-16,260.0000000000001,1040.0000000000002) translate(185.80246913580248 25.611111111111114)"/><use xlink:href="#g" transform="matrix(-1.8369701987210297e-16,-1,1,-1.8369701987210297e-16,260.0000000000001,1040.0000000000002) translate(245 25.611111111111114)"/><use xlink:href="#m" transform="matrix(-1.8369701987210297e-16,-1,1,-1.8369701987210297e-16,260.0000000000001,1040.0000000000002) translate(277.037037037037 25.611111111111114)"/><use xlink:href="#h" transform="matrix(-1.8369701987210297e-16,-1,1,-1.8369701987210297e-16,260.0000000000001,1040.0000000000002) translate(56.481481481481495 52.27777777777778)"/><use xlink:href="#n" transform="matrix(-1.8369701987210297e-16,-1,1,-1.8369701987210297e-16,260.0000000000001,1040.0000000000002) translate(116.9135802469136 52.27777777777778)"/><use xlink:href="#o" transform="matrix(-1.8369701987210297e-16,-1,1,-1.8369701987210297e-16,260.0000000000001,1040.0000000000002) translate(200.679012345679 52.27777777777778)"/><use xlink:href="#e" transform="matrix(-1.8369701987210297e-16,-1,1,-1.8369701987210297e-16,260,1360) translate(2.283950617283949 25.611111111111114)"/><use xlink:href="#p" transform="matrix(-1.8369701987210297e-16,-1,1,-1.8369701987210297e-16,260,1360) translate(84.75308641975309 25.611111111111114)"/><use xlink:href="#l" transform="matrix(-1.8369701987210297e-16,-1,1,-1.8369701987210297e-16,260,1360) translate(135.1851851851852 25.611111111111114)"/><use xlink:href="#g" transform="matrix(-1.8369701987210297e-16,-1,1,-1.8369701987210297e-16,260,1360) translate(194.3827160493827 25.611111111111114)"/><use xlink:href="#q" transform="matrix(-1.8369701987210297e-16,-1,1,-1.8369701987210297e-16,260,1360) translate(226.41975308641975 25.611111111111114)"/><use xlink:href="#r" transform="matrix(-1.8369701987210297e-16,-1,1,-1.8369701987210297e-16,260,1360) translate(263.4567901234568 25.611111111111114)"/><use xlink:href="#s" transform="matrix(-1.8369701987210297e-16,-1,1,-1.8369701987210297e-16,260,1360) translate(121.2037037037037 52.27777777777778)"/><use xlink:href="#e" transform="matrix(-1.8369701987210297e-16,-1,1,-1.8369701987210297e-16,260,1680) translate(23.240740740740762 25.611111111111114)"/><use xlink:href="#f" transform="matrix(-1.8369701987210297e-16,-1,1,-1.8369701987210297e-16,260,1680) translate(105.7098765432099 25.611111111111114)"/><use xlink:href="#t" transform="matrix(-1.8369701987210297e-16,-1,1,-1.8369701987210297e-16,260,1680) translate(200.58641975308643 25.611111111111114)"/><use xlink:href="#r" transform="matrix(-1.8369701987210297e-16,-1,1,-1.8369701987210297e-16,260,1680) translate(242.5 25.611111111111114)"/><use xlink:href="#k" transform="matrix(-1.8369701987210297e-16,-1,1,-1.8369701987210297e-16,260,1680) translate(93.42592592592592 52.27777777777778)"/><use xlink:href="#j" transform="matrix(-1.8369701987210297e-16,-1,1,-1.8369701987210297e-16,260,1680) translate(184.6604938271605 52.27777777777778)"/><path d="M360 107.12a6 6 0 0 1 6-6h208a6 6 0 0 1 6 6v94c-36.74-16.7-59.62-16.7-73.48-16.7-22 0-51.26 16.7-73.26 16.7-13.64 0-36.74 0-73.26-16.7z" stroke="#5e5e5e" stroke-width="3" fill="#edf5ff"/><use xlink:href="#u" transform="matrix(1,0,0,1,365,106.11764705882352) translate(18.703703703703695 27.02777777777778)"/><use xlink:href="#v" transform="matrix(1,0,0,1,365,106.11764705882352) translate(146.9135802469136 27.02777777777778)"/><use xlink:href="#w" transform="matrix(1,0,0,1,365,106.11764705882352) translate(15.617283950617292 53.69444444444445)"/><use xlink:href="#x" transform="matrix(1,0,0,1,365,106.11764705882352) translate(101.91358024691357 53.69444444444445)"/><use xlink:href="#y" transform="matrix(1,0,0,1,365,106.11764705882352) translate(169.69135802469134 53.69444444444445)"/><path d="M390 263.6a6 6 0 0 1 6-6h132a6 6 0 0 1 6 6v102c-24.05-18.05-39.02-18.05-48.1-18.05-14.4 0-33.55 18.04-47.95 18.04-8.93 0-24.05 0-47.95-18.05z" stroke="#5e5e5e" stroke-width="3" fill="#edf5ff"/><path d="M398 273.12a6 6 0 0 1 6-6h132a6 6 0 0 1 6 6v102c-24.05-18.04-39.02-18.04-48.1-18.04-14.4 0-33.55 18.04-47.95 18.04-8.93 0-24.05 0-47.95-18.04z" stroke="#5e5e5e" stroke-width="3" fill="#edf5ff"/><path d="M406 282.65a6 6 0 0 1 6-6h132a6 6 0 0 1 6 6v102c-24.05-18.04-39.02-18.04-48.1-18.04-14.4 0-33.55 18.05-47.95 18.05-8.93 0-24.05 0-47.95-18.04z" stroke="#5e5e5e" stroke-width="3" fill="#edf5ff"/><use xlink:href="#z" transform="matrix(1,0,0,1,411.0002092399813,281.64705882352945) translate(30.055555555555557 17.77777777777778)"/><use xlink:href="#A" transform="matrix(1,0,0,1,411.0002092399813,281.64705882352945) translate(52.21604938271605 17.77777777777778)"/><use xlink:href="#B" transform="matrix(1,0,0,1,411.0002092399813,281.64705882352945) translate(78.08024691358025 17.77777777777778)"/><use xlink:href="#C" transform="matrix(1,0,0,1,411.0002092399813,281.64705882352945) translate(28.79012345679012 44.44444444444444)"/><use xlink:href="#D" transform="matrix(1,0,0,1,411.0002092399813,281.64705882352945) translate(23.203703703703702 71.11111111111111)"/><path d="M470 255.12V212.6" stroke="#5e5e5e" stroke-width="2" fill="none"/><path d="M471 256.12h-2v-1.03h2z" stroke="#5e5e5e" stroke-width=".05" fill="#5e5e5e"/><path d="M470 197.32l4.64 14.27h-9.27z" stroke="#5e5e5e" stroke-width="2" fill="#5e5e5e"/><path d="M740 267.12a6 6 0 0 1 6-6h268a6 6 0 0 1 6 6v74c-46.76-13.36-75.88-13.36-93.52-13.36-28 0-65.24 13.36-93.24 13.36-17.36 0-46.76 0-93.24-13.36z" stroke="#5e5e5e" stroke-width="3" fill="#fff"/><use xlink:href="#u" transform="matrix(1,0,0,1,745,266.11764705882354) translate(0 17.77777777777778)"/><use xlink:href="#E" transform="matrix(1,0,0,1,745,266.11764705882354) translate(128.2098765432099 17.77777777777778)"/><use xlink:href="#F" transform="matrix(1,0,0,1,745,266.11764705882354) translate(178.76543209876544 17.77777777777778)"/><use xlink:href="#G" transform="matrix(1,0,0,1,745,266.11764705882354) translate(0 44.44444444444444)"/><use xlink:href="#H" transform="matrix(1,0,0,1,745,266.11764705882354) translate(0 71.11111111111111)"/><path d="M661.05 295.94l.18.72.3.73.4.65.52.6.6.5.66.42.74.3.76.18.82.07h71.48v2h-71.56l-1.05-.1-1.08-.24-1.02-.42-.94-.58-.83-.7-.72-.85-.56-.93-.42-1.02-.27-1.1-.03-72.8h2zm-6-145.75l1.1.26 1 .42.95.57.83.72.72.83.57.94.42 1 .26 1.08.08 1.06.02 44.97h-2l-.02-44.9-.06-.8-.2-.78-.3-.72-.4-.67-.5-.6-.6-.5-.67-.4-.73-.3-.72-.2-54.84-.06v-2z" stroke="#5e5e5e" stroke-width=".05" fill="#5e5e5e"/><path d="M738.5 302.12h-1.03v-2h1.03z" fill="#5e5e5e"/><path d="M738.52 302.14h-1.07v-2.05h1.07zm-1.02-2v1.95h.98v-1.96z" stroke="#5e5e5e" stroke-width=".05" fill="#5e5e5e"/><path d="M598.96 155.75l-14.26-4.63 14.26-4.64z" fill="#5e5e5e"/><path d="M599.96 157.13l-18.5-6 18.5-6.02zm-12.03-6l10.03 3.25v-6.52z" stroke="#5e5e5e" stroke-width=".05" fill="#5e5e5e"/><use xlink:href="#I" transform="matrix(1,0,0,1,562.4002788856459,202.05040188492083) translate(0 14.222222222222223)"/><use xlink:href="#J" transform="matrix(1,0,0,1,562.4002788856459,202.05040188492083) translate(46.370370370370374 14.222222222222223)"/><use xlink:href="#K" transform="matrix(1,0,0,1,562.4002788856459,202.05040188492083) translate(157.67901234567904 14.222222222222223)"/><path d="M1200 101.35a6 6 0 0 1 6-6h208a6 6 0 0 1 6 6v102c-36.74-18.03-59.62-18.03-73.48-18.03-22 0-51.26 18.03-73.26 18.03-13.64 0-36.74 0-73.26-18.03z" stroke="#5e5e5e" stroke-width="3" fill="#ff8f8f"/><use xlink:href="#u" transform="matrix(1,0,0,1,1205,100.35294117647058) translate(18.703703703703695 30.27777777777778)"/><use xlink:href="#v" transform="matrix(1,0,0,1,1205,100.35294117647058) translate(146.9135802469136 30.27777777777778)"/><use xlink:href="#w" transform="matrix(1,0,0,1,1205,100.35294117647058) translate(22.345679012345684 56.94444444444445)"/><use xlink:href="#L" transform="matrix(1,0,0,1,1205,100.35294117647058) translate(108.64197530864196 56.94444444444445)"/><use xlink:href="#M" transform="matrix(1,0,0,1,1205,100.35294117647058) translate(162.96296296296293 56.94444444444445)"/><path d="M1230 261.82a6 6 0 0 1 6-6h132a6 6 0 0 1 6 6v102c-24.05-18.03-39.02-18.03-48.1-18.03-14.4 0-33.55 18.02-47.95 18.02-8.93 0-24.05 0-47.95-18.03z" stroke="#5e5e5e" stroke-width="3" fill="#ff8f8f"/><path d="M1238 271.35a6 6 0 0 1 6-6h132a6 6 0 0 1 6 6v102c-24.05-18.03-39.02-18.03-48.1-18.03-14.4 0-33.55 18.03-47.95 18.03-8.93 0-24.05 0-47.95-18.03z" stroke="#5e5e5e" stroke-width="3" fill="#ff8f8f"/><path d="M1246 280.88a6 6 0 0 1 6-6h132a6 6 0 0 1 6 6v102c-24.05-18.03-39.02-18.03-48.1-18.03-14.4 0-33.55 18.03-47.95 18.03-8.93 0-24.05 0-47.95-18.03z" stroke="#5e5e5e" stroke-width="3" fill="#ff8f8f"/><use xlink:href="#z" transform="matrix(1,0,0,1,1251.0002092399814,279.88235294117646) translate(14.037037037037038 17.77777777777778)"/><use xlink:href="#N" transform="matrix(1,0,0,1,1251.0002092399814,279.88235294117646) translate(36.19753086419753 17.77777777777778)"/><use xlink:href="#O" transform="matrix(1,0,0,1,1251.0002092399814,279.88235294117646) translate(49.71604938271605 17.77777777777778)"/><use xlink:href="#A" transform="matrix(1,0,0,1,1251.0002092399814,279.88235294117646) translate(68.23456790123457 17.77777777777778)"/><use xlink:href="#B" transform="matrix(1,0,0,1,1251.0002092399814,279.88235294117646) translate(94.09876543209876 17.77777777777778)"/><use xlink:href="#P" transform="matrix(1,0,0,1,1251.0002092399814,279.88235294117646) translate(3.5432098765432016 44.44444444444444)"/><use xlink:href="#C" transform="matrix(1,0,0,1,1251.0002092399814,279.88235294117646) translate(54.03703703703703 44.44444444444444)"/><use xlink:href="#D" transform="matrix(1,0,0,1,1251.0002092399814,279.88235294117646) translate(23.203703703703702 71.11111111111111)"/><path d="M1310 253.36V214.13" stroke="#5e5e5e" stroke-width="2" fill="none"/><path d="M1311 254.36h-2v-1.03h2z" stroke="#5e5e5e" stroke-width=".05" fill="#5e5e5e"/><path d="M1310 198.87l4.64 14.27h-9.27z" stroke="#5e5e5e" stroke-width="2" fill="#5e5e5e"/><path d="M1110.9 296.25l-.26 1.1-.42 1.02-.57.94-.72.84-.83.72-.94.57-1.02.42-1.06.26-1.06.1h-81.56v-2h81.48l.82-.07.76-.2.73-.3.67-.4.6-.5.5-.6.4-.67.3-.72.2-.73.02-60.06h2zm69.1-145.9l-64.84.08-.72.17-.73.3-.66.4-.6.52-.5.6-.4.66-.3.73-.2.77-.06.82-.03 59.2h-2l.03-59.3.08-1.04.26-1.07.42-1.03.57-.93.73-.84.83-.7.94-.6 1.02-.4 1.1-.27 65.08-.08z" stroke="#5e5e5e" stroke-width=".05" fill="#5e5e5e"/><path d="M1022.5 302.2h-1.04v-2h1.03z" fill="#5e5e5e"/><path d="M1022.5 302.22h-1.06v-2.05h1.07zm-1.02-2v1.95h.98v-1.95z" stroke="#5e5e5e" stroke-width=".05" fill="#5e5e5e"/><path d="M1195.26 149.35L1181 154v-9.28z" fill="#5e5e5e"/><path d="M1198.5 149.35l-18.5 6v-12zm-16.5 3.26l10.03-3.25-10.03-3.26z" stroke="#5e5e5e" stroke-width=".05" fill="#5e5e5e"/><use xlink:href="#Q" transform="matrix(1,0,0,1,993.1901762364821,214.60593643250658) translate(0 14.222222222222223)"/><use xlink:href="#R" transform="matrix(1,0,0,1,993.1901762364821,214.60593643250658) translate(82.81481481481481 14.222222222222223)"/><use xlink:href="#K" transform="matrix(1,0,0,1,993.1901762364821,214.60593643250658) translate(196.09876543209876 14.222222222222223)"/><path d="M560.45 19a8 8 0 0 1 8-8h520.78a8 8 0 0 1 8 8v26.14a8 8 0 0 1-8 8H568.45a8 8 0 0 1-8-8z" stroke="#000" stroke-opacity="0" stroke-width="2" fill="#fff" fill-opacity="0"/><use xlink:href="#S" transform="matrix(1,0,0,1,564.4519859370766,14.992920792079222) translate(105.59641975308642 25.845277777777778)"/><use xlink:href="#T" transform="matrix(1,0,0,1,564.4519859370766,14.992920792079222) translate(249.60012345679013 25.845277777777778)"/><use xlink:href="#U" transform="matrix(1,0,0,1,564.4519859370766,14.992920792079222) translate(354.41617283950615 25.845277777777778)"/><path d="M694.82 50.65h265.2M694.85 50.65h-1.03M960 50.65h1.03" stroke="#b2b2b2" stroke-width="2" fill="none"/><path d="M560 60.07a8 8 0 0 1 8-8h521.38a8 8 0 0 1 8 8v4a8 8 0 0 1-8 8H568a8 8 0 0 1-8-8z" stroke="#000" stroke-opacity="0" stroke-width="2" fill="#fff" fill-opacity="0"/><use xlink:href="#V" transform="matrix(1,0,0,1,564,56.066254125296126) translate(129.6235802469136 14.917037037037037)"/><use xlink:href="#W" transform="matrix(1,0,0,1,564,56.066254125296126) translate(202.62090534979427 14.917037037037037)"/><use xlink:href="#X" transform="matrix(1,0,0,1,564,56.066254125296126) translate(284.96596707818935 14.917037037037037)"/><use xlink:href="#Y" transform="matrix(1,0,0,1,564,56.066254125296126) translate(297.41545267489715 14.917037037037037)"/><use xlink:href="#Z" transform="matrix(1,0,0,1,564,56.066254125296126) translate(356.0087654320988 14.917037037037037)"/><use xlink:href="#aa" transform="matrix(1,0,0,1,564,56.066254125296126) translate(373.0046502057613 14.917037037037037)"/><path d="M360 424.24a6 6 0 0 1 6-6h208a6 6 0 0 1 6 6v94c-36.74-16.7-59.62-16.7-73.48-16.7-22 0-51.26 16.7-73.26 16.7-13.64 0-36.74 0-73.26-16.7z" stroke="#5e5e5e" stroke-width="3" fill="#edf5ff"/><use xlink:href="#u" transform="matrix(1,0,0,1,365,423.2352941176471) translate(18.703703703703695 27.02777777777778)"/><use xlink:href="#v" transform="matrix(1,0,0,1,365,423.2352941176471) translate(146.9135802469136 27.02777777777778)"/><use xlink:href="#w" transform="matrix(1,0,0,1,365,423.2352941176471) translate(15.617283950617292 53.69444444444445)"/><use xlink:href="#x" transform="matrix(1,0,0,1,365,423.2352941176471) translate(101.91358024691357 53.69444444444445)"/><use xlink:href="#y" transform="matrix(1,0,0,1,365,423.2352941176471) translate(169.69135802469134 53.69444444444445)"/><path d="M390 580.7a6 6 0 0 1 6-6h132a6 6 0 0 1 6 6v102c-24.05-18.03-39.02-18.03-48.1-18.03-14.4 0-33.55 18.04-47.95 18.04-8.93 0-24.05 0-47.95-18.03z" stroke="#5e5e5e" stroke-width="3" fill="#edf5ff"/><path d="M398 590.24a6 6 0 0 1 6-6h132a6 6 0 0 1 6 6v102c-24.05-18.04-39.02-18.04-48.1-18.04-14.4 0-33.55 18.04-47.95 18.04-8.93 0-24.05 0-47.95-18.04z" stroke="#5e5e5e" stroke-width="3" fill="#edf5ff"/><path d="M406 599.76a6 6 0 0 1 6-6h132a6 6 0 0 1 6 6v102c-24.05-18.03-39.02-18.03-48.1-18.03-14.4 0-33.55 18.03-47.95 18.03-8.93 0-24.05 0-47.95-18.03z" stroke="#5e5e5e" stroke-width="3" fill="#edf5ff"/><use xlink:href="#z" transform="matrix(1,0,0,1,411.0002092399813,598.7647058823529) translate(30.055555555555557 17.77777777777778)"/><use xlink:href="#A" transform="matrix(1,0,0,1,411.0002092399813,598.7647058823529) translate(52.21604938271605 17.77777777777778)"/><use xlink:href="#B" transform="matrix(1,0,0,1,411.0002092399813,598.7647058823529) translate(78.08024691358025 17.77777777777778)"/><use xlink:href="#C" transform="matrix(1,0,0,1,411.0002092399813,598.7647058823529) translate(28.79012345679012 44.44444444444444)"/><use xlink:href="#D" transform="matrix(1,0,0,1,411.0002092399813,598.7647058823529) translate(23.203703703703702 71.11111111111111)"/><path d="M470 572.24V529.72" stroke="#5e5e5e" stroke-width="2" fill="none"/><path d="M471 573.24h-2v-1.03h2z" stroke="#5e5e5e" stroke-width=".05" fill="#5e5e5e"/><path d="M470 514.44l4.64 14.27h-9.27z" stroke="#5e5e5e" stroke-width="2" fill="#5e5e5e"/><path d="M880 434.24a6 6 0 0 1 6-6h268a6 6 0 0 1 6 6v74c-46.76-13.36-75.88-13.36-93.52-13.36-28 0-65.24 13.36-93.24 13.36-17.36 0-46.76 0-93.24-13.36z" stroke="#5e5e5e" stroke-width="3" fill="#fff"/><use xlink:href="#u" transform="matrix(1,0,0,1,885,433.2352941176471) translate(0 17.77777777777778)"/><use xlink:href="#E" transform="matrix(1,0,0,1,885,433.2352941176471) translate(128.2098765432099 17.77777777777778)"/><use xlink:href="#F" transform="matrix(1,0,0,1,885,433.2352941176471) translate(178.76543209876544 17.77777777777778)"/><use xlink:href="#G" transform="matrix(1,0,0,1,885,433.2352941176471) translate(0 44.44444444444444)"/><use xlink:href="#H" transform="matrix(1,0,0,1,885,433.2352941176471) translate(0 71.11111111111111)"/><path d="M616.53 469.24h-16.57v-2h16.57zm260.97 0h-65.8v-2h65.8z" stroke="#5e5e5e" stroke-width=".05" fill="#5e5e5e"/><path d="M878.5 469.24h-1.03v-2h1.03z" fill="#5e5e5e"/><path d="M878.52 469.26h-1.07v-2.05h1.07zm-1.02-2v1.95h.98v-1.94z" stroke="#5e5e5e" stroke-width=".05" fill="#5e5e5e"/><path d="M598.96 472.87l-14.26-4.63 14.26-4.64z" fill="#5e5e5e"/><path d="M599.96 474.25l-18.5-6 18.5-6.03zm-12.03-6l10.03 3.24v-6.52z" stroke="#5e5e5e" stroke-width=".05" fill="#5e5e5e"/><use xlink:href="#I" transform="matrix(1,0,0,1,616.5338534098938,457.5686274509804) translate(0 14.222222222222223)"/><use xlink:href="#J" transform="matrix(1,0,0,1,616.5338534098938,457.5686274509804) translate(46.370370370370374 14.222222222222223)"/><use xlink:href="#K" transform="matrix(1,0,0,1,616.5338534098938,457.5686274509804) translate(157.67901234567904 14.222222222222223)"/><path d="M900 580.7a6 6 0 0 1 6-6h268a6 6 0 0 1 6 6v74c-46.76-13.35-75.88-13.35-93.52-13.35-28 0-65.24 13.36-93.24 13.36-17.36 0-46.76 0-93.24-13.35z" stroke="#5e5e5e" stroke-width="3" fill="#ff8f8f"/><use xlink:href="#ab" transform="matrix(1,0,0,1,905,579.7058823529412) translate(0 17.77777777777778)"/><use xlink:href="#ac" transform="matrix(1,0,0,1,905,579.7058823529412) translate(83.88888888888889 17.77777777777778)"/><use xlink:href="#ad" transform="matrix(1,0,0,1,905,579.7058823529412) translate(212.0987654320988 17.77777777777778)"/><use xlink:href="#ae" transform="matrix(1,0,0,1,905,579.7058823529412) translate(0 44.44444444444444)"/><use xlink:href="#o" transform="matrix(1,0,0,1,905,579.7058823529412) translate(80.06172839506172 44.44444444444444)"/><path d="M741.07 609.6l.17.72.3.73.4.67.52.6.6.5.67.4.72.3.76.2.84.06H897.5v2H745.96l-1.06-.08-1.07-.26-1-.42-.95-.57-.84-.72-.7-.83-.58-.94-.42-1.02-.27-1.1-.03-37.18h2zm-6.02-101.32l1.1.26 1.03.42.93.58.85.7.7.85.6.92.4 1.02.26 1.07.1 1.06.02 36.16h-2l-.02-36.08-.07-.82-.18-.76-.3-.73-.4-.66-.52-.6-.6-.5-.66-.42-.73-.3-.72-.17L600 510.2v-2z" stroke="#5e5e5e" stroke-width=".05" fill="#5e5e5e"/><path d="M898.5 615.78h-1.03v-2h1.03z" fill="#5e5e5e"/><path d="M898.52 615.8h-1.07v-2.04h1.07zm-1.02-2v1.96h.98v-1.95z" stroke="#5e5e5e" stroke-width=".05" fill="#5e5e5e"/><path d="M599 513.84l-14.27-4.64 14.26-4.63z" fill="#5e5e5e"/><path d="M600 515.2l-18.5-6 18.5-6zm-12.03-6l10.02 3.26v-6.52z" stroke="#5e5e5e" stroke-width=".05" fill="#5e5e5e"/><use xlink:href="#I" transform="matrix(1,0,0,1,642.9347537648592,551.3249446268953) translate(0 14.222222222222223)"/><use xlink:href="#J" transform="matrix(1,0,0,1,642.9347537648592,551.3249446268953) translate(46.370370370370374 14.222222222222223)"/><use xlink:href="#af" transform="matrix(1,0,0,1,642.9347537648592,551.3249446268953) translate(157.67901234567904 14.222222222222223)"/><path d="M350 747.12a6 6 0 0 1 6-6h208a6 6 0 0 1 6 6v94c-36.74-16.7-59.62-16.7-73.48-16.7-22 0-51.26 16.7-73.26 16.7-13.64 0-36.74 0-73.26-16.7z" stroke="#5e5e5e" stroke-width="3" fill="#edf5ff"/><use xlink:href="#u" transform="matrix(1,0,0,1,355,746.1176470588235) translate(18.703703703703695 27.02777777777778)"/><use xlink:href="#v" transform="matrix(1,0,0,1,355,746.1176470588235) translate(146.9135802469136 27.02777777777778)"/><use xlink:href="#w" transform="matrix(1,0,0,1,355,746.1176470588235) translate(15.617283950617292 53.69444444444445)"/><use xlink:href="#x" transform="matrix(1,0,0,1,355,746.1176470588235) translate(101.91358024691357 53.69444444444445)"/><use xlink:href="#y" transform="matrix(1,0,0,1,355,746.1176470588235) translate(169.69135802469134 53.69444444444445)"/><path d="M380 903.6a6 6 0 0 1 6-6h132a6 6 0 0 1 6 6v102c-24.05-18.05-39.02-18.05-48.1-18.05-14.4 0-33.55 18.04-47.95 18.04-8.93 0-24.05 0-47.95-18.05z" stroke="#5e5e5e" stroke-width="3" fill="#edf5ff"/><path d="M388 913.12a6 6 0 0 1 6-6h132a6 6 0 0 1 6 6v102c-24.05-18.04-39.02-18.04-48.1-18.04-14.4 0-33.55 18.04-47.95 18.04-8.93 0-24.05 0-47.95-18.04z" stroke="#5e5e5e" stroke-width="3" fill="#edf5ff"/><path d="M396 922.65a6 6 0 0 1 6-6h132a6 6 0 0 1 6 6v102c-24.05-18.04-39.02-18.04-48.1-18.04-14.4 0-33.55 18.05-47.95 18.05-8.93 0-24.05 0-47.95-18.04z" stroke="#5e5e5e" stroke-width="3" fill="#edf5ff"/><g><use xlink:href="#z" transform="matrix(1,0,0,1,401.0002092399813,921.6470588235294) translate(30.055555555555557 17.77777777777778)"/><use xlink:href="#A" transform="matrix(1,0,0,1,401.0002092399813,921.6470588235294) translate(52.21604938271605 17.77777777777778)"/><use xlink:href="#B" transform="matrix(1,0,0,1,401.0002092399813,921.6470588235294) translate(78.08024691358025 17.77777777777778)"/><use xlink:href="#C" transform="matrix(1,0,0,1,401.0002092399813,921.6470588235294) translate(28.79012345679012 44.44444444444444)"/><use xlink:href="#D" transform="matrix(1,0,0,1,401.0002092399813,921.6470588235294) translate(23.203703703703702 71.11111111111111)"/></g><path d="M460 895.12V852.6" stroke="#5e5e5e" stroke-width="2" fill="none"/><path d="M461 896.12h-2v-1.03h2z" stroke="#5e5e5e" stroke-width=".05" fill="#5e5e5e"/><path d="M460 837.32l4.64 14.27h-9.27z" stroke="#5e5e5e" stroke-width="2" fill="#5e5e5e"/><path d="M660 903.6a6 6 0 0 1 6-6h268a6 6 0 0 1 6 6v74c-46.76-13.37-75.88-13.37-93.52-13.37-28 0-65.24 13.36-93.24 13.36-17.36 0-46.76 0-93.24-13.37z" stroke="#5e5e5e" stroke-width="3" fill="#fff"/><g><use xlink:href="#u" transform="matrix(1,0,0,1,665,902.5882352941177) translate(0 17.77777777777778)"/><use xlink:href="#E" transform="matrix(1,0,0,1,665,902.5882352941177) translate(128.2098765432099 17.77777777777778)"/><use xlink:href="#F" transform="matrix(1,0,0,1,665,902.5882352941177) translate(178.76543209876544 17.77777777777778)"/><use xlink:href="#G" transform="matrix(1,0,0,1,665,902.5882352941177) translate(0 44.44444444444444)"/><use xlink:href="#H" transform="matrix(1,0,0,1,665,902.5882352941177) translate(0 71.11111111111111)"/></g><path d="M616.05 932.4l.18.73.3.73.4.67.52.6.6.5.66.4.74.3.76.2.82.06h36.48v2h-36.56l-1.05-.1-1.08-.25-1.02-.42-.94-.58-.83-.7-.72-.85-.56-.93-.42-1.02-.27-1.1-.03-70.1h2zm-6-142.2l1.1.26 1 .42.95.57.83.72.72.83.57.94.42 1 .26 1.08.08 1.06.02 44.13h-2l-.02-44.04-.06-.82-.2-.77-.3-.72-.4-.67-.5-.6-.6-.5-.67-.4-.73-.3-.72-.2-19.84-.06v-2z" stroke="#5e5e5e" stroke-width=".05" fill="#5e5e5e"/><path d="M658.5 938.6h-1.03v-2h1.03z" fill="#5e5e5e"/><path d="M658.52 938.6h-1.07v-2.04h1.07zm-1.02-2v1.96h.98v-1.95z" stroke="#5e5e5e" stroke-width=".05" fill="#5e5e5e"/><path d="M588.96 795.75l-14.26-4.63 14.26-4.64z" fill="#5e5e5e"/><path d="M589.96 797.13l-18.5-6 18.5-6.02zm-12.03-6l10.03 3.25v-6.52z" stroke="#5e5e5e" stroke-width=".05" fill="#5e5e5e"/><g><use xlink:href="#I" transform="matrix(1,0,0,1,517.4002788856459,841.2132918223036) translate(0 14.222222222222223)"/><use xlink:href="#J" transform="matrix(1,0,0,1,517.4002788856459,841.2132918223036) translate(46.370370370370374 14.222222222222223)"/><use xlink:href="#K" transform="matrix(1,0,0,1,517.4002788856459,841.2132918223036) translate(157.67901234567904 14.222222222222223)"/></g><path d="M1190 741.35a6 6 0 0 1 6-6h208a6 6 0 0 1 6 6v102c-36.74-18.03-59.62-18.03-73.48-18.03-22 0-51.26 18.03-73.26 18.03-13.64 0-36.74 0-73.26-18.03z" stroke="#5e5e5e" stroke-width="3" fill="#fff"/><g><use xlink:href="#u" transform="matrix(1,0,0,1,1195,740.3529411764706) translate(18.703703703703695 30.27777777777778)"/><use xlink:href="#v" transform="matrix(1,0,0,1,1195,740.3529411764706) translate(146.9135802469136 30.27777777777778)"/><use xlink:href="#w" transform="matrix(1,0,0,1,1195,740.3529411764706) translate(22.345679012345684 56.94444444444445)"/><use xlink:href="#L" transform="matrix(1,0,0,1,1195,740.3529411764706) translate(108.64197530864196 56.94444444444445)"/><use xlink:href="#M" transform="matrix(1,0,0,1,1195,740.3529411764706) translate(162.96296296296293 56.94444444444445)"/></g><path d="M1065.9 932.72l-.26 1.1-.42 1.02-.57.94-.72.83-.83.73-.94.57-1.02.42-1.06.26-1.06.08H942.46v-2h116.48l.82-.06.76-.18.73-.3.67-.4.6-.52.5-.6.4-.67.3-.72.2-.72.02-58.3h2zM1170 790.35l-99.84.08-.72.17-.73.3-.66.4-.6.52-.5.6-.4.66-.3.73-.2.77-.06.82-.03 57.44h-2l.03-57.53.08-1.04.26-1.07.42-1.03.57-.93.73-.84.83-.7.94-.6 1.02-.4 1.1-.27 100.08-.08z" stroke="#5e5e5e" stroke-width=".05" fill="#5e5e5e"/><path d="M942.5 938.66h-1.04v-2h1.03z" fill="#5e5e5e"/><path d="M942.5 938.7h-1.06v-2.06h1.07zm-1.02-2v1.94h.98v-1.95z" stroke="#5e5e5e" stroke-width=".05" fill="#5e5e5e"/><path d="M1185.26 789.35L1171 794v-9.28z" fill="#5e5e5e"/><path d="M1188.5 789.35l-18.5 6v-12zm-16.5 3.26l10.03-3.25-10.03-3.26z" stroke="#5e5e5e" stroke-width=".05" fill="#5e5e5e"/><g><use xlink:href="#Q" transform="matrix(1,0,0,1,948.1901762364821,852.8412305501537) translate(0 14.222222222222223)"/><use xlink:href="#R" transform="matrix(1,0,0,1,948.1901762364821,852.8412305501537) translate(82.81481481481481 14.222222222222223)"/><use xlink:href="#K" transform="matrix(1,0,0,1,948.1901762364821,852.8412305501537) translate(196.09876543209876 14.222222222222223)"/></g><path d="M1180 889.6a6 6 0 0 1 6-6h208a6 6 0 0 1 6 6v102c-36.74-18.05-59.62-18.05-73.48-18.05-22 0-51.26 18.04-73.26 18.04-13.64 0-36.74 0-73.26-18.05z" stroke="#c92d39" stroke-width="3" fill="#ff8f8f"/><g><use xlink:href="#ag" transform="matrix(1,0,0,1,1185,888.5882352941177) translate(4.506172839506178 30.27777777777778)"/><use xlink:href="#k" transform="matrix(1,0,0,1,1185,888.5882352941177) translate(66.17283950617283 30.27777777777778)"/><use xlink:href="#ah" transform="matrix(1,0,0,1,1185,888.5882352941177) translate(157.40740740740742 30.27777777777778)"/><use xlink:href="#ai" transform="matrix(1,0,0,1,1185,888.5882352941177) translate(23.58024691358024 56.94444444444445)"/><use xlink:href="#aj" transform="matrix(1,0,0,1,1185,888.5882352941177) translate(103.70370370370368 56.94444444444445)"/><use xlink:href="#M" transform="matrix(1,0,0,1,1185,888.5882352941177) translate(161.7283950617284 56.94444444444445)"/></g><path d="M1160 938.6l-16.32.06-.72.18-.73.3-.67.4-.6.5-.5.6-.4.68-.3.72-.2.77-.06.83-.07 63.6-.27 1.1-.42 1.02-.57.94-.72.82-.83.72-.94.57-1.02.43-1.06.26-1.06.07-90.33-.02v-2l90.26.02.82-.06.76-.18.73-.3.67-.4.6-.5.5-.6.4-.68.3-.72.2-.73.06-63.45.08-1.06.26-1.08.42-1 .57-.95.72-.83.83-.72.94-.57 1.02-.42 1.1-.27 16.55-.07zm-359 67.53l.07.82.18.77.3.72.4.67.52.6.6.5.66.42.73.3.72.18h71.4v2h-71.64l-1.1-.27-1.02-.42-.94-.56-.83-.72-.7-.83-.6-.95-.4-1-.27-1.08-.08-1.06v-33.03h2z" stroke="#5e5e5e" stroke-width=".05" fill="#5e5e5e"/><path d="M801 973.2h-2v-.85l2-.36z" fill="#5e5e5e"/><path d="M801.03 973.22h-2.05v-.9l2.05-.36zm-2-.85v.8h1.95v-1.15z" stroke="#5e5e5e" stroke-width=".05" fill="#5e5e5e"/><path d="M1175.26 937.6L1161 942.2v-9.27z" fill="#5e5e5e"/><path d="M1178.5 937.6l-18.5 6v-12.02zm-16.5 3.25l10.03-3.26-10.03-3.27z" stroke="#5e5e5e" stroke-width=".05" fill="#5e5e5e"/><g><use xlink:href="#ak" transform="matrix(1,0,0,1,876.5799871653833,1001.5055296935587) translate(0 14.222222222222223)"/><use xlink:href="#al" transform="matrix(1,0,0,1,876.5799871653833,1001.5055296935587) translate(52.24691358024692 14.222222222222223)"/><use xlink:href="#af" transform="matrix(1,0,0,1,876.5799871653833,1001.5055296935587) translate(129.1851851851852 14.222222222222223)"/></g><path d="M390 1064.24a6 6 0 0 1 6-6h208a6 6 0 0 1 6 6v94c-36.74-16.7-59.62-16.7-73.48-16.7-22 0-51.26 16.7-73.26 16.7-13.64 0-36.74 0-73.26-16.7z" stroke="#5e5e5e" stroke-width="3" fill="#edf5ff"/><g><use xlink:href="#u" transform="matrix(1,0,0,1,395.0002092399813,1063.235294117647) translate(18.703703703703695 27.02777777777778)"/><use xlink:href="#v" transform="matrix(1,0,0,1,395.0002092399813,1063.235294117647) translate(146.9135802469136 27.02777777777778)"/><use xlink:href="#w" transform="matrix(1,0,0,1,395.0002092399813,1063.235294117647) translate(15.617283950617292 53.69444444444445)"/><use xlink:href="#x" transform="matrix(1,0,0,1,395.0002092399813,1063.235294117647) translate(101.91358024691357 53.69444444444445)"/><use xlink:href="#y" transform="matrix(1,0,0,1,395.0002092399813,1063.235294117647) translate(169.69135802469134 53.69444444444445)"/></g><path d="M860 1106a6 6 0 0 1 6-6h268a6 6 0 0 1 6 6v74c-46.76-13.36-75.88-13.36-93.52-13.36-28 0-65.24 13.36-93.24 13.36-17.36 0-46.76 0-93.24-13.36z" stroke="#5e5e5e" stroke-width="3" fill="#fff"/><g><use xlink:href="#u" transform="matrix(1,0,0,1,865,1105) translate(0 17.77777777777778)"/><use xlink:href="#E" transform="matrix(1,0,0,1,865,1105) translate(128.2098765432099 17.77777777777778)"/><use xlink:href="#F" transform="matrix(1,0,0,1,865,1105) translate(178.76543209876544 17.77777777777778)"/><use xlink:href="#G" transform="matrix(1,0,0,1,865,1105) translate(0 44.44444444444444)"/><use xlink:href="#H" transform="matrix(1,0,0,1,865,1105) translate(0 71.11111111111111)"/></g><path d="M736.05 1134.82l.18.72.3.73.4.67.52.6.6.5.66.4.74.3.76.2.82.06H857.5v2H740.94l-1.05-.08-1.08-.26-1.02-.42-.94-.57-.83-.72-.7-.83-.6-.94-.4-1.02-.28-1.1-.05-15.17h2zm-98.65-27.58v2h-7.44v-2z" stroke="#5e5e5e" stroke-width=".05" fill="#5e5e5e"/><path d="M858.5 1141h-1.03v-2h1.03z" fill="#5e5e5e"/><path d="M858.52 1141.03h-1.07v-2.06h1.07zm-1.02-2v1.94h.98v-1.94z" stroke="#5e5e5e" stroke-width=".05" fill="#5e5e5e"/><path d="M628.96 1112.87l-14.26-4.63 14.26-4.64z" fill="#5e5e5e"/><path d="M629.96 1114.25l-18.5-6 18.5-6.03zm-12.03-6l10.03 3.24v-6.52z" stroke="#5e5e5e" stroke-width=".05" fill="#5e5e5e"/><g><use xlink:href="#I" transform="matrix(1,0,0,1,637.4003835056366,1098.5586098563163) translate(0 14.222222222222223)"/><use xlink:href="#J" transform="matrix(1,0,0,1,637.4003835056366,1098.5586098563163) translate(46.370370370370374 14.222222222222223)"/><use xlink:href="#K" transform="matrix(1,0,0,1,637.4003835056366,1098.5586098563163) translate(157.67901234567904 14.222222222222223)"/></g><path d="M390 1186a6 6 0 0 1 6-6h208a6 6 0 0 1 6 6v94c-36.74-16.7-59.62-16.7-73.48-16.7-22 0-51.26 16.7-73.26 16.7-13.64 0-36.74 0-73.26-16.7z" stroke="#5e5e5e" stroke-width="3" fill="#ff8f8f"/><g><use xlink:href="#ag" transform="matrix(1,0,0,1,395.00020923998125,1185) translate(13.148148148148138 27.02777777777778)"/><use xlink:href="#am" transform="matrix(1,0,0,1,395.00020923998125,1185) translate(74.81481481481481 27.02777777777778)"/><use xlink:href="#an" transform="matrix(1,0,0,1,395.00020923998125,1185) translate(82.80864197530865 53.69444444444445)"/></g><path d="M654.06 1231h-24.1v-2h24.1zm346.94-6.96l-.08 1.06-.26 1.06-.42 1.02-.57.94-.72.83-.83.72-.94.57-1.02.42-1.1.27-146.88.03v-2l146.64-.03.72-.18.73-.3.67-.4.6-.52.5-.6.4-.66.3-.73.2-.76.06-.82v-48.38h2z" stroke="#5e5e5e" stroke-width=".05" fill="#5e5e5e"/><path d="M1001 1175.6h-2v-.84l2-.36z" fill="#5e5e5e"/><path d="M1001.03 1175.63h-2.05v-.9l2.05-.36zm-2-.84v.78h1.95v-1.15z" stroke="#5e5e5e" stroke-width=".05" fill="#5e5e5e"/><path d="M628.96 1234.64L614.7 1230l14.26-4.64z" fill="#5e5e5e"/><path d="M629.96 1236l-18.5-6 18.5-6zm-12.03-6l10.03 3.26v-6.52z" stroke="#5e5e5e" stroke-width=".05" fill="#5e5e5e"/><g><use xlink:href="#I" transform="matrix(1,0,0,1,654.0575567498412,1219.3333333333333) translate(0 14.222222222222223)"/><use xlink:href="#J" transform="matrix(1,0,0,1,654.0575567498412,1219.3333333333333) translate(46.370370370370374 14.222222222222223)"/><use xlink:href="#af" transform="matrix(1,0,0,1,654.0575567498412,1219.3333333333333) translate(157.67901234567904 14.222222222222223)"/></g><path d="M1220 1086a6 6 0 0 1 6-6h188a6 6 0 0 1 6 6v114c-33.4-20.04-54.2-20.04-66.8-20.04-20 0-46.6 20.04-66.6 20.04-12.4 0-33.4 0-66.6-20.04z" stroke="#5e5e5e" stroke-width="3" fill="#ff8f8f"/><g><use xlink:href="#ao" transform="matrix(1,0,0,1,1225,1085) translate(7.469135802469154 37.46527777777778)"/><use xlink:href="#j" transform="matrix(1,0,0,1,1225,1085) translate(74.04320987654322 64.13194444444446)"/></g><path d="M1142.46 1140.07h37.48a.04.04 0 0 0 .04-.03.04.04 0 0 1 .04-.04H1200" stroke="#5e5e5e" stroke-width="2" fill="none"/><path d="M1142.5 1141.07h-1.04v-2h1.03z" stroke="#5e5e5e" stroke-width=".05" fill="#5e5e5e"/><path d="M1215.26 1140l-14.26 4.64v-9.28z" stroke="#5e5e5e" stroke-width="2" fill="#5e5e5e"/><path d="M340 1437.76a6 6 0 0 1 6-6h208a6 6 0 0 1 6 6v94c-36.74-16.7-59.62-16.7-73.48-16.7-22 0-51.26 16.7-73.26 16.7-13.64 0-36.74 0-73.26-16.7z" stroke="#5e5e5e" stroke-width="3" fill="#edf5ff"/><g><use xlink:href="#u" transform="matrix(1,0,0,1,345,1436.764705882353) translate(18.703703703703695 27.02777777777778)"/><use xlink:href="#v" transform="matrix(1,0,0,1,345,1436.764705882353) translate(146.9135802469136 27.02777777777778)"/><use xlink:href="#w" transform="matrix(1,0,0,1,345,1436.764705882353) translate(15.617283950617292 53.69444444444445)"/><use xlink:href="#x" transform="matrix(1,0,0,1,345,1436.764705882353) translate(101.91358024691357 53.69444444444445)"/><use xlink:href="#y" transform="matrix(1,0,0,1,345,1436.764705882353) translate(169.69135802469134 53.69444444444445)"/></g><path d="M780 1386a6 6 0 0 1 6-6h268a6 6 0 0 1 6 6v74c-46.76-13.36-75.88-13.36-93.52-13.36-28 0-65.24 13.36-93.24 13.36-17.36 0-46.76 0-93.24-13.36z" stroke="#5e5e5e" stroke-width="3" fill="#fff"/><g><use xlink:href="#u" transform="matrix(1,0,0,1,785,1385) translate(0 17.77777777777778)"/><use xlink:href="#E" transform="matrix(1,0,0,1,785,1385) translate(128.2098765432099 17.77777777777778)"/><use xlink:href="#F" transform="matrix(1,0,0,1,785,1385) translate(178.76543209876544 17.77777777777778)"/><use xlink:href="#G" transform="matrix(1,0,0,1,785,1385) translate(0 44.44444444444444)"/><use xlink:href="#H" transform="matrix(1,0,0,1,785,1385) translate(0 71.11111111111111)"/></g><path d="M670.9 1476.86l-.26 1.07-.42 1-.57.95-.72.84-.83.7-.94.58-1.02.43-1.1.26-85.08.06v-2l84.84-.07.72-.18.73-.3.67-.4.6-.52.5-.6.4-.67.3-.72.2-.75v-.1h2zM777.5 1421H676.02l-.82.06-.76.2-.73.3-.66.4-.6.5-.5.6-.4.67-.3.73-.2.72-.03 29.93h-2l.05-30.16.27-1.1.42-1.02.57-.94.73-.83.83-.72.94-.57 1.02-.42 1.07-.26 1.04-.08H777.5z" stroke="#5e5e5e" stroke-width=".05" fill="#5e5e5e"/><path d="M778.5 1421h-1.03v-2h1.03z" fill="#5e5e5e"/><path d="M778.52 1421.03h-1.07v-2.06h1.07zm-1.02-2v1.94h.98v-1.94z" stroke="#5e5e5e" stroke-width=".05" fill="#5e5e5e"/><path d="M578.96 1486.4l-14.26-4.64 14.26-4.63z" fill="#5e5e5e"/><path d="M579.96 1487.78l-18.5-6.02 16.38-5.32h2.12zm-12.03-6.02l10.03 3.26v-6.5z" stroke="#5e5e5e" stroke-width=".05" fill="#5e5e5e"/><g><use xlink:href="#I" transform="matrix(1,0,0,1,572.4002788856459,1455.1080679869672) translate(0 14.222222222222223)"/><use xlink:href="#J" transform="matrix(1,0,0,1,572.4002788856459,1455.1080679869672) translate(46.370370370370374 14.222222222222223)"/><use xlink:href="#K" transform="matrix(1,0,0,1,572.4002788856459,1455.1080679869672) translate(157.67901234567904 14.222222222222223)"/></g><path d="M1190 1427.76a6 6 0 0 1 6-6h188a6 6 0 0 1 6 6v114c-33.4-20.04-54.2-20.04-66.8-20.04-20 0-46.6 20.04-66.6 20.04-12.4 0-33.4 0-66.6-20.04z" stroke="#5e5e5e" stroke-width="3" fill="#ff8f8f"/><g><use xlink:href="#ao" transform="matrix(1,0,0,1,1195.0002092399814,1426.764705882353) translate(7.469135802469154 37.46527777777778)"/><use xlink:href="#j" transform="matrix(1,0,0,1,1195.0002092399814,1426.764705882353) translate(74.04320987654322 64.13194444444446)"/></g><path d="M1062.46 1420.07h56.52a6 6 0 0 1 6 6v49.7a6 6 0 0 0 6 6H1170" stroke="#5e5e5e" stroke-width="2" fill="none"/><path d="M1062.5 1421.07h-1.04v-2h1.03z" stroke="#5e5e5e" stroke-width=".05" fill="#5e5e5e"/><path d="M1185.26 1481.76l-14.26 4.64v-9.27z" stroke="#5e5e5e" stroke-width="2" fill="#5e5e5e"/><path d="M340 1557.76a6 6 0 0 1 6-6h208a6 6 0 0 1 6 6v94c-36.74-16.7-59.62-16.7-73.48-16.7-22 0-51.26 16.7-73.26 16.7-13.64 0-36.74 0-73.26-16.7z" stroke="#5e5e5e" stroke-width="3" fill="#edf5ff"/><g><use xlink:href="#ag" transform="matrix(1,0,0,1,345,1556.764705882353) translate(53.20987654320988 27.02777777777778)"/><use xlink:href="#ap" transform="matrix(1,0,0,1,345,1556.764705882353) translate(114.87654320987654 27.02777777777778)"/><use xlink:href="#w" transform="matrix(1,0,0,1,345,1556.764705882353) translate(15.617283950617292 53.69444444444445)"/><use xlink:href="#x" transform="matrix(1,0,0,1,345,1556.764705882353) translate(101.91358024691357 53.69444444444445)"/><use xlink:href="#y" transform="matrix(1,0,0,1,345,1556.764705882353) translate(169.69135802469134 53.69444444444445)"/></g><path d="M780 1506a6 6 0 0 1 6-6h268a6 6 0 0 1 6 6v74c-46.76-13.36-75.88-13.36-93.52-13.36-28 0-65.24 13.36-93.24 13.36-17.36 0-46.76 0-93.24-13.36z" stroke="#5e5e5e" stroke-width="3" fill="#fff"/><g><use xlink:href="#ag" transform="matrix(1,0,0,1,785,1505) translate(0 17.77777777777778)"/><use xlink:href="#n" transform="matrix(1,0,0,1,785,1505) translate(61.666666666666664 17.77777777777778)"/><use xlink:href="#j" transform="matrix(1,0,0,1,785,1505) translate(145.4320987654321 17.77777777777778)"/></g><path d="M670.9 1596.86l-.26 1.07-.42 1-.57.95-.72.84-.83.7-.94.58-1.02.43-1.1.26-85.08.06v-2l84.84-.07.72-.18.73-.3.67-.4.6-.52.5-.6.4-.67.3-.72.2-.75v-.1h2zM777.5 1541H676.02l-.82.06-.76.2-.73.3-.66.4-.6.5-.5.6-.4.67-.3.73-.2.72-.03 29.93h-2l.05-30.16.27-1.1.42-1.02.57-.94.73-.83.83-.72.94-.57 1.02-.42 1.07-.26 1.04-.08H777.5z" stroke="#5e5e5e" stroke-width=".05" fill="#5e5e5e"/><path d="M778.5 1541h-1.03v-2h1.03z" fill="#5e5e5e"/><path d="M778.52 1541.03h-1.07v-2.06h1.07zm-1.02-2v1.94h.98v-1.94z" stroke="#5e5e5e" stroke-width=".05" fill="#5e5e5e"/><path d="M578.96 1606.4l-14.26-4.64 14.26-4.63z" fill="#5e5e5e"/><path d="M579.96 1607.78l-18.5-6.02 16.38-5.32h2.12zm-12.03-6.02l10.03 3.26v-6.5z" stroke="#5e5e5e" stroke-width=".05" fill="#5e5e5e"/><g><use xlink:href="#I" transform="matrix(1,0,0,1,572.4002788856459,1575.1080679869672) translate(0 14.222222222222223)"/><use xlink:href="#J" transform="matrix(1,0,0,1,572.4002788856459,1575.1080679869672) translate(46.370370370370374 14.222222222222223)"/><use xlink:href="#K" transform="matrix(1,0,0,1,572.4002788856459,1575.1080679869672) translate(157.67901234567904 14.222222222222223)"/></g><path d="M1062.46 1540.07h56.52a6 6 0 0 0 6-6v-46.3a6 6 0 0 1 6-6H1170" stroke="#5e5e5e" stroke-width="2" fill="none"/><path d="M1062.5 1541.07h-1.04v-2h1.03z" stroke="#5e5e5e" stroke-width=".05" fill="#5e5e5e"/><path d="M1185.26 1481.76l-14.26 4.64v-9.27z" stroke="#5e5e5e" stroke-width="2" fill="#5e5e5e"/><defs><path fill="#333" d="M63-220v92h138v28H63V0H30v-248h175v28H63" id="aq"/><path fill="#333" d="M100-194c63 0 86 42 84 106H49c0 40 14 67 53 68 26 1 43-12 49-29l28 8c-11 28-37 45-77 45C44 4 14-33 15-96c1-61 26-98 85-98zm52 81c6-60-76-77-97-28-3 7-6 17-6 28h103" id="ar"/><path fill="#333" d="M206 0h-36l-40-164L89 0H53L-1-190h32L70-26l43-164h34l41 164 42-164h31" id="as"/><path fill="#333" d="M114-163C36-179 61-72 57 0H25l-1-190h30c1 12-1 29 2 39 6-27 23-49 58-41v29" id="at"/><g id="a"><use transform="matrix(0.06172839506172839,0,0,0.06172839506172839,0,0)" xlink:href="#aq"/><use transform="matrix(0.06172839506172839,0,0,0.06172839506172839,13.518518518518517,0)" xlink:href="#ar"/><use transform="matrix(0.06172839506172839,0,0,0.06172839506172839,25.864197530864196,0)" xlink:href="#as"/><use transform="matrix(0.06172839506172839,0,0,0.06172839506172839,41.85185185185185,0)" xlink:href="#ar"/><use transform="matrix(0.06172839506172839,0,0,0.06172839506172839,54.197530864197525,0)" xlink:href="#at"/></g><path fill="#333" d="M141-36C126-15 110 5 73 4 37 3 15-17 15-53c-1-64 63-63 125-63 3-35-9-54-41-54-24 1-41 7-42 31l-33-3c5-37 33-52 76-52 45 0 72 20 72 64v82c-1 20 7 32 28 27v20c-31 9-61-2-59-35zM48-53c0 20 12 33 32 33 41-3 63-29 60-74-43 2-92-5-92 41" id="au"/><path fill="#333" d="M96-169c-40 0-48 33-48 73s9 75 48 75c24 0 41-14 43-38l32 2c-6 37-31 61-74 61-59 0-76-41-82-99-10-93 101-131 147-64 4 7 5 14 7 22l-32 3c-4-21-16-35-41-35" id="av"/><path fill="#333" d="M59-47c-2 24 18 29 38 22v24C64 9 27 4 27-40v-127H5v-23h24l9-43h21v43h35v23H59v120" id="aw"/><path fill="#333" d="M24-231v-30h32v30H24zM24 0v-190h32V0H24" id="ax"/><path fill="#333" d="M108 0H70L1-190h34L89-25l56-165h34" id="ay"/><path fill="#333" d="M0 4l72-265h28L28 4H0" id="az"/><path fill="#333" d="M135-143c-3-34-86-38-87 0 15 53 115 12 119 90S17 21 10-45l28-5c4 36 97 45 98 0-10-56-113-15-118-90-4-57 82-63 122-42 12 7 21 19 24 35" id="aA"/><path fill="#333" d="M177-190C167-65 218 103 67 71c-23-6-38-20-44-43l32-5c15 47 100 32 89-28v-30C133-14 115 1 83 1 29 1 15-40 15-95c0-56 16-97 71-98 29-1 48 16 59 35 1-10 0-23 2-32h30zM94-22c36 0 50-32 50-73 0-42-14-75-50-75-39 0-46 34-46 75s6 73 46 73" id="aB"/><path fill="#333" d="M117-194c89-4 53 116 60 194h-32v-121c0-31-8-49-39-48C34-167 62-67 57 0H25l-1-190h30c1 10-1 24 2 32 11-22 29-35 61-36" id="aC"/><path fill="#333" d="M85-194c31 0 48 13 60 33l-1-100h32l1 261h-30c-2-10 0-23-3-31C134-8 116 4 85 4 32 4 16-35 15-94c0-66 23-100 70-100zm9 24c-40 0-46 34-46 75 0 40 6 74 45 74 42 0 51-32 51-76 0-42-9-74-50-73" id="aD"/><g id="b"><use transform="matrix(0.06172839506172839,0,0,0.06172839506172839,0,0)" xlink:href="#au"/><use transform="matrix(0.06172839506172839,0,0,0.06172839506172839,12.345679012345679,0)" xlink:href="#av"/><use transform="matrix(0.06172839506172839,0,0,0.06172839506172839,23.45679012345679,0)" xlink:href="#aw"/><use transform="matrix(0.06172839506172839,0,0,0.06172839506172839,29.62962962962963,0)" xlink:href="#ax"/><use transform="matrix(0.06172839506172839,0,0,0.06172839506172839,34.50617283950617,0)" xlink:href="#ay"/><use transform="matrix(0.06172839506172839,0,0,0.06172839506172839,45.61728395061728,0)" xlink:href="#ar"/><use transform="matrix(0.06172839506172839,0,0,0.06172839506172839,57.962962962962955,0)" xlink:href="#az"/><use transform="matrix(0.06172839506172839,0,0,0.06172839506172839,64.1358024691358,0)" xlink:href="#au"/><use transform="matrix(0.06172839506172839,0,0,0.06172839506172839,76.48148148148148,0)" xlink:href="#aA"/><use transform="matrix(0.06172839506172839,0,0,0.06172839506172839,87.5925925925926,0)" xlink:href="#aA"/><use transform="matrix(0.06172839506172839,0,0,0.06172839506172839,98.70370370370371,0)" xlink:href="#ax"/><use transform="matrix(0.06172839506172839,0,0,0.06172839506172839,103.58024691358025,0)" xlink:href="#aB"/><use transform="matrix(0.06172839506172839,0,0,0.06172839506172839,115.92592592592594,0)" xlink:href="#aC"/><use transform="matrix(0.06172839506172839,0,0,0.06172839506172839,128.27160493827162,0)" xlink:href="#ar"/><use transform="matrix(0.06172839506172839,0,0,0.06172839506172839,140.6172839506173,0)" xlink:href="#aD"/></g><path fill="#333" d="M24 0v-261h32V0H24" id="aE"/><g id="c"><use transform="matrix(0.06172839506172839,0,0,0.06172839506172839,0,0)" xlink:href="#aE"/><use transform="matrix(0.06172839506172839,0,0,0.06172839506172839,4.876543209876543,0)" xlink:href="#ax"/><use transform="matrix(0.06172839506172839,0,0,0.06172839506172839,9.753086419753085,0)" xlink:href="#av"/><use transform="matrix(0.06172839506172839,0,0,0.06172839506172839,20.864197530864196,0)" xlink:href="#ar"/><use transform="matrix(0.06172839506172839,0,0,0.06172839506172839,33.20987654320987,0)" xlink:href="#aC"/><use transform="matrix(0.06172839506172839,0,0,0.06172839506172839,45.55555555555555,0)" xlink:href="#aA"/><use transform="matrix(0.06172839506172839,0,0,0.06172839506172839,56.66666666666666,0)" xlink:href="#ar"/><use transform="matrix(0.06172839506172839,0,0,0.06172839506172839,69.01234567901234,0)" xlink:href="#aA"/></g><g id="d"><use transform="matrix(0.06172839506172839,0,0,0.06172839506172839,0,0)" xlink:href="#at"/><use transform="matrix(0.06172839506172839,0,0,0.06172839506172839,7.345679012345679,0)" xlink:href="#ar"/><use transform="matrix(0.06172839506172839,0,0,0.06172839506172839,19.691358024691358,0)" xlink:href="#aC"/><use transform="matrix(0.06172839506172839,0,0,0.06172839506172839,32.03703703703704,0)" xlink:href="#ar"/><use transform="matrix(0.06172839506172839,0,0,0.06172839506172839,44.382716049382715,0)" xlink:href="#as"/><use transform="matrix(0.06172839506172839,0,0,0.06172839506172839,60.37037037037037,0)" xlink:href="#ar"/><use transform="matrix(0.06172839506172839,0,0,0.06172839506172839,72.71604938271605,0)" xlink:href="#aD"/></g><path fill="#333" d="M240 0l2-218c-23 76-54 145-80 218h-23L58-218 59 0H30v-248h44l77 211c21-75 51-140 76-211h43V0h-30" id="aF"/><path fill="#333" d="M84 4C-5 8 30-112 23-190h32v120c0 31 7 50 39 49 72-2 45-101 50-169h31l1 190h-30c-1-10 1-25-2-33-11 22-28 36-60 37" id="aG"/><path fill="#333" d="M115-194c55 1 70 41 70 98S169 2 115 4C84 4 66-9 55-30l1 105H24l-1-265h31l2 30c10-21 28-34 59-34zm-8 174c40 0 45-34 45-75s-6-73-45-74c-42 0-51 32-51 76 0 43 10 73 51 73" id="aH"/><g id="e"><use transform="matrix(0.06172839506172839,0,0,0.06172839506172839,0,0)" xlink:href="#aF"/><use transform="matrix(0.06172839506172839,0,0,0.06172839506172839,18.456790123456788,0)" xlink:href="#aG"/><use transform="matrix(0.06172839506172839,0,0,0.06172839506172839,30.80246913580247,0)" xlink:href="#aE"/><use transform="matrix(0.06172839506172839,0,0,0.06172839506172839,35.67901234567901,0)" xlink:href="#aw"/><use transform="matrix(0.06172839506172839,0,0,0.06172839506172839,41.851851851851855,0)" xlink:href="#ax"/><use transform="matrix(0.06172839506172839,0,0,0.06172839506172839,46.7283950617284,0)" xlink:href="#aH"/><use transform="matrix(0.06172839506172839,0,0,0.06172839506172839,59.074074074074076,0)" xlink:href="#aE"/><use transform="matrix(0.06172839506172839,0,0,0.06172839506172839,63.95061728395061,0)" xlink:href="#ar"/></g><g id="f"><use transform="matrix(0.06172839506172839,0,0,0.06172839506172839,0,0)" xlink:href="#at"/><use transform="matrix(0.06172839506172839,0,0,0.06172839506172839,7.345679012345679,0)" xlink:href="#ar"/><use transform="matrix(0.06172839506172839,0,0,0.06172839506172839,19.691358024691358,0)" xlink:href="#aC"/><use transform="matrix(0.06172839506172839,0,0,0.06172839506172839,32.03703703703704,0)" xlink:href="#ar"/><use transform="matrix(0.06172839506172839,0,0,0.06172839506172839,44.382716049382715,0)" xlink:href="#as"/><use transform="matrix(0.06172839506172839,0,0,0.06172839506172839,60.37037037037037,0)" xlink:href="#au"/><use transform="matrix(0.06172839506172839,0,0,0.06172839506172839,72.71604938271605,0)" xlink:href="#aE"/><use transform="matrix(0.06172839506172839,0,0,0.06172839506172839,77.5925925925926,0)" xlink:href="#aA"/></g><path fill="#333" d="M101-234c-31-9-42 10-38 44h38v23H63V0H32v-167H5v-23h27c-7-52 17-82 69-68v24" id="aI"/><path fill="#333" d="M100-194c62-1 85 37 85 99 1 63-27 99-86 99S16-35 15-95c0-66 28-99 85-99zM99-20c44 1 53-31 53-75 0-43-8-75-51-75s-53 32-53 75 10 74 51 75" id="aJ"/><g id="g"><use transform="matrix(0.06172839506172839,0,0,0.06172839506172839,0,0)" xlink:href="#aI"/><use transform="matrix(0.06172839506172839,0,0,0.06172839506172839,6.172839506172839,0)" xlink:href="#aJ"/><use transform="matrix(0.06172839506172839,0,0,0.06172839506172839,18.51851851851852,0)" xlink:href="#at"/></g><path fill="#333" d="M210-169c-67 3-38 105-44 169h-31v-121c0-29-5-50-35-48C34-165 62-65 56 0H25l-1-190h30c1 10-1 24 2 32 10-44 99-50 107 0 11-21 27-35 58-36 85-2 47 119 55 194h-31v-121c0-29-5-49-35-48" id="aK"/><g id="h"><use transform="matrix(0.06172839506172839,0,0,0.06172839506172839,0,0)" xlink:href="#aA"/><use transform="matrix(0.06172839506172839,0,0,0.06172839506172839,11.11111111111111,0)" xlink:href="#au"/><use transform="matrix(0.06172839506172839,0,0,0.06172839506172839,23.45679012345679,0)" xlink:href="#aK"/><use transform="matrix(0.06172839506172839,0,0,0.06172839506172839,41.91358024691358,0)" xlink:href="#ar"/></g><g id="i"><use transform="matrix(0.06172839506172839,0,0,0.06172839506172839,0,0)" xlink:href="#aH"/><use transform="matrix(0.06172839506172839,0,0,0.06172839506172839,12.345679012345679,0)" xlink:href="#at"/><use transform="matrix(0.06172839506172839,0,0,0.06172839506172839,19.691358024691358,0)" xlink:href="#ax"/><use transform="matrix(0.06172839506172839,0,0,0.06172839506172839,24.5679012345679,0)" xlink:href="#aJ"/><use transform="matrix(0.06172839506172839,0,0,0.06172839506172839,36.913580246913575,0)" xlink:href="#at"/></g><g id="j"><use transform="matrix(0.06172839506172839,0,0,0.06172839506172839,0,0)" xlink:href="#aH"/><use transform="matrix(0.06172839506172839,0,0,0.06172839506172839,12.345679012345679,0)" xlink:href="#aE"/><use transform="matrix(0.06172839506172839,0,0,0.06172839506172839,17.22222222222222,0)" xlink:href="#au"/><use transform="matrix(0.06172839506172839,0,0,0.06172839506172839,29.5679012345679,0)" xlink:href="#aC"/></g><g id="k"><use transform="matrix(0.06172839506172839,0,0,0.06172839506172839,0,0)" xlink:href="#at"/><use transform="matrix(0.06172839506172839,0,0,0.06172839506172839,7.345679012345679,0)" xlink:href="#ar"/><use transform="matrix(0.06172839506172839,0,0,0.06172839506172839,19.691358024691358,0)" xlink:href="#aC"/><use transform="matrix(0.06172839506172839,0,0,0.06172839506172839,32.03703703703704,0)" xlink:href="#ar"/><use transform="matrix(0.06172839506172839,0,0,0.06172839506172839,44.382716049382715,0)" xlink:href="#as"/><use transform="matrix(0.06172839506172839,0,0,0.06172839506172839,60.37037037037037,0)" xlink:href="#ar"/><use transform="matrix(0.06172839506172839,0,0,0.06172839506172839,72.71604938271605,0)" xlink:href="#aD"/></g><g id="l"><use transform="matrix(0.06172839506172839,0,0,0.06172839506172839,0,0)" xlink:href="#aH"/><use transform="matrix(0.06172839506172839,0,0,0.06172839506172839,12.345679012345679,0)" xlink:href="#aE"/><use transform="matrix(0.06172839506172839,0,0,0.06172839506172839,17.22222222222222,0)" xlink:href="#au"/><use transform="matrix(0.06172839506172839,0,0,0.06172839506172839,29.5679012345679,0)" xlink:href="#aC"/><use transform="matrix(0.06172839506172839,0,0,0.06172839506172839,41.913580246913575,0)" xlink:href="#aA"/></g><path fill="#333" d="M106-169C34-169 62-67 57 0H25v-261h32l-1 103c12-21 28-36 61-36 89 0 53 116 60 194h-32v-121c2-32-8-49-39-48" id="aL"/><g id="m"><use transform="matrix(0.06172839506172839,0,0,0.06172839506172839,0,0)" xlink:href="#aw"/><use transform="matrix(0.06172839506172839,0,0,0.06172839506172839,6.172839506172839,0)" xlink:href="#aL"/><use transform="matrix(0.06172839506172839,0,0,0.06172839506172839,18.51851851851852,0)" xlink:href="#ar"/></g><g id="n"><use transform="matrix(0.06172839506172839,0,0,0.06172839506172839,0,0)" xlink:href="#at"/><use transform="matrix(0.06172839506172839,0,0,0.06172839506172839,7.345679012345679,0)" xlink:href="#ar"/><use transform="matrix(0.06172839506172839,0,0,0.06172839506172839,19.691358024691358,0)" xlink:href="#aC"/><use transform="matrix(0.06172839506172839,0,0,0.06172839506172839,32.03703703703704,0)" xlink:href="#ar"/><use transform="matrix(0.06172839506172839,0,0,0.06172839506172839,44.382716049382715,0)" xlink:href="#as"/><use transform="matrix(0.06172839506172839,0,0,0.06172839506172839,60.37037037037037,0)" xlink:href="#au"/><use transform="matrix(0.06172839506172839,0,0,0.06172839506172839,72.71604938271605,0)" xlink:href="#aE"/></g><g id="o"><use transform="matrix(0.06172839506172839,0,0,0.06172839506172839,0,0)" xlink:href="#at"/><use transform="matrix(0.06172839506172839,0,0,0.06172839506172839,7.345679012345679,0)" xlink:href="#ar"/><use transform="matrix(0.06172839506172839,0,0,0.06172839506172839,19.691358024691358,0)" xlink:href="#av"/><use transform="matrix(0.06172839506172839,0,0,0.06172839506172839,30.80246913580247,0)" xlink:href="#aJ"/><use transform="matrix(0.06172839506172839,0,0,0.06172839506172839,43.148148148148145,0)" xlink:href="#at"/><use transform="matrix(0.06172839506172839,0,0,0.06172839506172839,50.49382716049382,0)" xlink:href="#aD"/></g><g id="p"><use transform="matrix(0.06172839506172839,0,0,0.06172839506172839,0,0)" xlink:href="#aH"/><use transform="matrix(0.06172839506172839,0,0,0.06172839506172839,12.345679012345679,0)" xlink:href="#at"/><use transform="matrix(0.06172839506172839,0,0,0.06172839506172839,19.691358024691358,0)" xlink:href="#ax"/><use transform="matrix(0.06172839506172839,0,0,0.06172839506172839,24.5679012345679,0)" xlink:href="#aJ"/><use transform="matrix(0.06172839506172839,0,0,0.06172839506172839,36.913580246913575,0)" xlink:href="#at"/></g><g id="q"><use transform="matrix(0.06172839506172839,0,0,0.06172839506172839,0,0)" xlink:href="#aw"/><use transform="matrix(0.06172839506172839,0,0,0.06172839506172839,6.172839506172839,0)" xlink:href="#aL"/><use transform="matrix(0.06172839506172839,0,0,0.06172839506172839,18.51851851851852,0)" xlink:href="#ar"/></g><g id="r"><use transform="matrix(0.06172839506172839,0,0,0.06172839506172839,0,0)" xlink:href="#aA"/><use transform="matrix(0.06172839506172839,0,0,0.06172839506172839,11.11111111111111,0)" xlink:href="#au"/><use transform="matrix(0.06172839506172839,0,0,0.06172839506172839,23.45679012345679,0)" xlink:href="#aK"/><use transform="matrix(0.06172839506172839,0,0,0.06172839506172839,41.91358024691358,0)" xlink:href="#ar"/></g><g id="s"><use transform="matrix(0.06172839506172839,0,0,0.06172839506172839,0,0)" xlink:href="#at"/><use transform="matrix(0.06172839506172839,0,0,0.06172839506172839,7.345679012345679,0)" xlink:href="#ar"/><use transform="matrix(0.06172839506172839,0,0,0.06172839506172839,19.691358024691358,0)" xlink:href="#aC"/><use transform="matrix(0.06172839506172839,0,0,0.06172839506172839,32.03703703703704,0)" xlink:href="#ar"/><use transform="matrix(0.06172839506172839,0,0,0.06172839506172839,44.382716049382715,0)" xlink:href="#as"/><use transform="matrix(0.06172839506172839,0,0,0.06172839506172839,60.37037037037037,0)" xlink:href="#au"/><use transform="matrix(0.06172839506172839,0,0,0.06172839506172839,72.71604938271605,0)" xlink:href="#aE"/></g><g id="t"><use transform="matrix(0.06172839506172839,0,0,0.06172839506172839,0,0)" xlink:href="#ax"/><use transform="matrix(0.06172839506172839,0,0,0.06172839506172839,4.876543209876543,0)" xlink:href="#aC"/><use transform="matrix(0.06172839506172839,0,0,0.06172839506172839,17.22222222222222,0)" xlink:href="#aw"/><use transform="matrix(0.06172839506172839,0,0,0.06172839506172839,23.39506172839506,0)" xlink:href="#aJ"/></g><path fill="#333" d="M185-189c-5-48-123-54-124 2 14 75 158 14 163 119 3 78-121 87-175 55-17-10-28-26-33-46l33-7c5 56 141 63 141-1 0-78-155-14-162-118-5-82 145-84 179-34 5 7 8 16 11 25" id="aM"/><path fill="#333" d="M115-194c53 0 69 39 70 98 0 66-23 100-70 100C84 3 66-7 56-30L54 0H23l1-261h32v101c10-23 28-34 59-34zm-8 174c40 0 45-34 45-75 0-40-5-75-45-74-42 0-51 32-51 76 0 43 10 73 51 73" id="aN"/><g id="u"><use transform="matrix(0.06172839506172839,0,0,0.06172839506172839,0,0)" xlink:href="#aM"/><use transform="matrix(0.06172839506172839,0,0,0.06172839506172839,14.814814814814813,0)" xlink:href="#aG"/><use transform="matrix(0.06172839506172839,0,0,0.06172839506172839,27.160493827160494,0)" xlink:href="#aN"/><use transform="matrix(0.06172839506172839,0,0,0.06172839506172839,39.50617283950617,0)" xlink:href="#aA"/><use transform="matrix(0.06172839506172839,0,0,0.06172839506172839,50.61728395061728,0)" xlink:href="#av"/><use transform="matrix(0.06172839506172839,0,0,0.06172839506172839,61.72839506172839,0)" xlink:href="#at"/><use transform="matrix(0.06172839506172839,0,0,0.06172839506172839,69.07407407407408,0)" xlink:href="#ax"/><use transform="matrix(0.06172839506172839,0,0,0.06172839506172839,73.95061728395062,0)" xlink:href="#aH"/><use transform="matrix(0.06172839506172839,0,0,0.06172839506172839,86.2962962962963,0)" xlink:href="#aw"/><use transform="matrix(0.06172839506172839,0,0,0.06172839506172839,92.46913580246914,0)" xlink:href="#ax"/><use transform="matrix(0.06172839506172839,0,0,0.06172839506172839,97.34567901234568,0)" xlink:href="#aJ"/><use transform="matrix(0.06172839506172839,0,0,0.06172839506172839,109.69135802469137,0)" xlink:href="#aC"/></g><path fill="#333" d="M30-248c87 1 191-15 191 75 0 78-77 80-158 76V0H30v-248zm33 125c57 0 124 11 124-50 0-59-68-47-124-48v98" id="aO"/><g id="v"><use transform="matrix(0.06172839506172839,0,0,0.06172839506172839,0,0)" xlink:href="#aO"/><use transform="matrix(0.06172839506172839,0,0,0.06172839506172839,14.814814814814813,0)" xlink:href="#aE"/><use transform="matrix(0.06172839506172839,0,0,0.06172839506172839,19.691358024691354,0)" xlink:href="#au"/><use transform="matrix(0.06172839506172839,0,0,0.06172839506172839,32.03703703703703,0)" xlink:href="#aC"/></g><path fill="#333" d="M30 0v-248h187v28H63v79h144v27H63v87h162V0H30" id="aP"/><path fill="#333" d="M141 0L90-78 38 0H4l68-98-65-92h35l48 74 47-74h35l-64 92 68 98h-35" id="aQ"/><path fill="#333" d="M33-154v-36h34v36H33zM33 0v-36h34V0H33" id="aR"/><g id="w"><use transform="matrix(0.06172839506172839,0,0,0.06172839506172839,0,0)" xlink:href="#aP"/><use transform="matrix(0.06172839506172839,0,0,0.06172839506172839,14.814814814814813,0)" xlink:href="#aQ"/><use transform="matrix(0.06172839506172839,0,0,0.06172839506172839,25.925925925925924,0)" xlink:href="#aH"/><use transform="matrix(0.06172839506172839,0,0,0.06172839506172839,38.2716049382716,0)" xlink:href="#ax"/><use transform="matrix(0.06172839506172839,0,0,0.06172839506172839,43.148148148148145,0)" xlink:href="#at"/><use transform="matrix(0.06172839506172839,0,0,0.06172839506172839,50.49382716049382,0)" xlink:href="#ar"/><use transform="matrix(0.06172839506172839,0,0,0.06172839506172839,62.8395061728395,0)" xlink:href="#aA"/><use transform="matrix(0.06172839506172839,0,0,0.06172839506172839,73.9506172839506,0)" xlink:href="#aR"/></g><g id="x"><use transform="matrix(0.06172839506172839,0,0,0.06172839506172839,0,0)" xlink:href="#aF"/><use transform="matrix(0.06172839506172839,0,0,0.06172839506172839,18.456790123456788,0)" xlink:href="#au"/><use transform="matrix(0.06172839506172839,0,0,0.06172839506172839,30.80246913580247,0)" xlink:href="#at"/><use transform="matrix(0.06172839506172839,0,0,0.06172839506172839,38.148148148148145,0)" xlink:href="#av"/><use transform="matrix(0.06172839506172839,0,0,0.06172839506172839,49.25925925925925,0)" xlink:href="#aL"/></g><path fill="#333" d="M126-127c33 6 58 20 58 59 0 88-139 92-164 29-3-8-5-16-6-25l32-3c6 27 21 44 54 44 32 0 52-15 52-46 0-38-36-46-79-43v-28c39 1 72-4 72-42 0-27-17-43-46-43-28 0-47 15-49 41l-32-3c6-42 35-63 81-64 48-1 79 21 79 65 0 36-21 52-52 59" id="aS"/><path fill="#333" d="M27 0v-27h64v-190l-56 39v-29l58-41h29v221h61V0H27" id="aT"/><g id="y"><use transform="matrix(0.06172839506172839,0,0,0.06172839506172839,0,0)" xlink:href="#aS"/><use transform="matrix(0.06172839506172839,0,0,0.06172839506172839,12.345679012345679,0)" xlink:href="#aT"/></g><path fill="#333" d="M190 0L58-211 59 0H30v-248h39L202-35l-2-213h31V0h-41" id="aU"/><use transform="matrix(0.06172839506172839,0,0,0.06172839506172839,0,0)" xlink:href="#aU" id="z"/><path fill="#333" d="M87 75C49 33 22-17 22-94c0-76 28-126 65-167h31c-38 41-64 92-64 168S80 34 118 75H87" id="aV"/><path fill="#333" d="M158-156l-14 65h45v19h-49L124 0h-19l15-72H56L41 0H22l15-72H2v-19h39l14-65H11v-19h48l15-71h20l-16 71h64l16-71h19l-16 71h37v19h-40zm-83 0L61-91h63l14-65H75" id="aW"/><g id="A"><use transform="matrix(0.06172839506172839,0,0,0.06172839506172839,0,0)" xlink:href="#aV"/><use transform="matrix(0.06172839506172839,0,0,0.06172839506172839,7.345679012345679,0)" xlink:href="#aW"/></g><path fill="#333" d="M33-261c38 41 65 92 65 168S71 34 33 75H2C39 34 66-17 66-93S39-220 2-261h31" id="aX"/><g id="B"><use transform="matrix(0.06172839506172839,0,0,0.06172839506172839,0,0)" xlink:href="#aJ"/><use transform="matrix(0.06172839506172839,0,0,0.06172839506172839,12.345679012345679,0)" xlink:href="#aI"/><use transform="matrix(0.06172839506172839,0,0,0.06172839506172839,18.51851851851852,0)" xlink:href="#aX"/></g><path fill="#333" d="M30 0v-248h33v221h125V0H30" id="aY"/><g id="C"><use transform="matrix(0.06172839506172839,0,0,0.06172839506172839,0,0)" xlink:href="#aY"/><use transform="matrix(0.06172839506172839,0,0,0.06172839506172839,12.345679012345679,0)" xlink:href="#ar"/><use transform="matrix(0.06172839506172839,0,0,0.06172839506172839,24.691358024691358,0)" xlink:href="#au"/><use transform="matrix(0.06172839506172839,0,0,0.06172839506172839,37.03703703703704,0)" xlink:href="#at"/><use transform="matrix(0.06172839506172839,0,0,0.06172839506172839,44.382716049382715,0)" xlink:href="#aC"/><use transform="matrix(0.06172839506172839,0,0,0.06172839506172839,56.72839506172839,0)" xlink:href="#ar"/><use transform="matrix(0.06172839506172839,0,0,0.06172839506172839,69.07407407407408,0)" xlink:href="#at"/></g><g id="D"><use transform="matrix(0.06172839506172839,0,0,0.06172839506172839,0,0)" xlink:href="#aY"/><use transform="matrix(0.06172839506172839,0,0,0.06172839506172839,12.345679012345679,0)" xlink:href="#ax"/><use transform="matrix(0.06172839506172839,0,0,0.06172839506172839,17.22222222222222,0)" xlink:href="#av"/><use transform="matrix(0.06172839506172839,0,0,0.06172839506172839,28.333333333333332,0)" xlink:href="#ar"/><use transform="matrix(0.06172839506172839,0,0,0.06172839506172839,40.67901234567901,0)" xlink:href="#aC"/><use transform="matrix(0.06172839506172839,0,0,0.06172839506172839,53.02469135802469,0)" xlink:href="#aA"/><use transform="matrix(0.06172839506172839,0,0,0.06172839506172839,64.1358024691358,0)" xlink:href="#ar"/><use transform="matrix(0.06172839506172839,0,0,0.06172839506172839,76.48148148148148,0)" xlink:href="#aA"/></g><g id="E"><use transform="matrix(0.06172839506172839,0,0,0.06172839506172839,0,0)" xlink:href="#aO"/><use transform="matrix(0.06172839506172839,0,0,0.06172839506172839,14.814814814814813,0)" xlink:href="#aE"/><use transform="matrix(0.06172839506172839,0,0,0.06172839506172839,19.691358024691354,0)" xlink:href="#au"/><use transform="matrix(0.06172839506172839,0,0,0.06172839506172839,32.03703703703703,0)" xlink:href="#aC"/></g><path fill="#333" d="M233-177c-1 41-23 64-60 70L243 0h-38l-65-103H63V0H30v-248c88 3 205-21 203 71zM63-129c60-2 137 13 137-47 0-61-80-42-137-45v92" id="aZ"/><g id="F"><use transform="matrix(0.06172839506172839,0,0,0.06172839506172839,0,0)" xlink:href="#aZ"/><use transform="matrix(0.06172839506172839,0,0,0.06172839506172839,15.987654320987653,0)" xlink:href="#ar"/><use transform="matrix(0.06172839506172839,0,0,0.06172839506172839,28.333333333333332,0)" xlink:href="#aC"/><use transform="matrix(0.06172839506172839,0,0,0.06172839506172839,40.67901234567901,0)" xlink:href="#ar"/><use transform="matrix(0.06172839506172839,0,0,0.06172839506172839,53.02469135802469,0)" xlink:href="#as"/><use transform="matrix(0.06172839506172839,0,0,0.06172839506172839,69.01234567901234,0)" xlink:href="#au"/><use transform="matrix(0.06172839506172839,0,0,0.06172839506172839,81.35802469135803,0)" xlink:href="#aE"/></g><path fill="#333" d="M24-248c93 1 206-16 204 79-1 75-69 88-152 82V0H24v-248zm52 121c47 0 100 7 100-41 0-47-54-39-100-39v80" id="ba"/><path fill="#333" d="M135-150c-39-12-60 13-60 57V0H25l-1-190h47c2 13-1 29 3 40 6-28 27-53 61-41v41" id="bb"/><path fill="#333" d="M25-224v-37h50v37H25zM25 0v-190h50V0H25" id="bc"/><path fill="#333" d="M110-194c64 0 96 36 96 99 0 64-35 99-97 99-61 0-95-36-95-99 0-62 34-99 96-99zm-1 164c35 0 45-28 45-65 0-40-10-65-43-65-34 0-45 26-45 65 0 36 10 65 43 65" id="bd"/><g id="I"><use transform="matrix(0.04938271604938272,0,0,0.04938271604938272,0,0)" xlink:href="#ba"/><use transform="matrix(0.04938271604938272,0,0,0.04938271604938272,11.851851851851853,0)" xlink:href="#bb"/><use transform="matrix(0.04938271604938272,0,0,0.04938271604938272,18.765432098765434,0)" xlink:href="#bc"/><use transform="matrix(0.04938271604938272,0,0,0.04938271604938272,23.703703703703706,0)" xlink:href="#bd"/><use transform="matrix(0.04938271604938272,0,0,0.04938271604938272,34.51851851851852,0)" xlink:href="#bb"/></g><path fill="#333" d="M137-138c1-29-70-34-71-4 15 46 118 7 119 86 1 83-164 76-172 9l43-7c4 19 20 25 44 25 33 8 57-30 24-41C81-84 22-81 20-136c-2-80 154-74 161-7" id="be"/><path fill="#333" d="M85 4C-2 5 27-109 22-190h50c7 57-23 150 33 157 60-5 35-97 40-157h50l1 190h-47c-2-12 1-28-3-38-12 25-28 42-61 42" id="bf"/><path fill="#333" d="M135-194c52 0 70 43 70 98 0 56-19 99-73 100-30 1-46-15-58-35L72 0H24l1-261h50v104c11-23 29-37 60-37zM114-30c31 0 40-27 40-66 0-37-7-63-39-63s-41 28-41 65c0 36 8 64 40 64" id="bg"/><path fill="#333" d="M190-63c-7 42-38 67-86 67-59 0-84-38-90-98-12-110 154-137 174-36l-49 2c-2-19-15-32-35-32-30 0-35 28-38 64-6 74 65 87 74 30" id="bh"/><path fill="#333" d="M135-194c53 0 70 44 70 98 0 56-19 98-73 100-31 1-45-17-59-34 3 33 2 69 2 105H25l-1-265h48c2 10 0 23 3 31 11-24 29-35 60-35zM114-30c33 0 39-31 40-66 0-38-9-64-40-64-56 0-55 130 0 130" id="bi"/><path fill="#333" d="M115-3C79 11 28 4 28-45v-112H4v-33h27l15-45h31v45h36v33H77v99c-1 23 16 31 38 25v30" id="bj"/><path fill="#333" d="M135-194c87-1 58 113 63 194h-50c-7-57 23-157-34-157-59 0-34 97-39 157H25l-1-190h47c2 12-1 28 3 38 12-26 28-41 61-42" id="bk"/><g id="J"><use transform="matrix(0.04938271604938272,0,0,0.04938271604938272,0,0)" xlink:href="#be"/><use transform="matrix(0.04938271604938272,0,0,0.04938271604938272,9.876543209876544,0)" xlink:href="#bf"/><use transform="matrix(0.04938271604938272,0,0,0.04938271604938272,20.69135802469136,0)" xlink:href="#bg"/><use transform="matrix(0.04938271604938272,0,0,0.04938271604938272,31.506172839506174,0)" xlink:href="#be"/><use transform="matrix(0.04938271604938272,0,0,0.04938271604938272,41.38271604938272,0)" xlink:href="#bh"/><use transform="matrix(0.04938271604938272,0,0,0.04938271604938272,51.25925925925927,0)" xlink:href="#bb"/><use transform="matrix(0.04938271604938272,0,0,0.04938271604938272,58.17283950617284,0)" xlink:href="#bc"/><use transform="matrix(0.04938271604938272,0,0,0.04938271604938272,63.111111111111114,0)" xlink:href="#bi"/><use transform="matrix(0.04938271604938272,0,0,0.04938271604938272,73.92592592592594,0)" xlink:href="#bj"/><use transform="matrix(0.04938271604938272,0,0,0.04938271604938272,79.80246913580248,0)" xlink:href="#bc"/><use transform="matrix(0.04938271604938272,0,0,0.04938271604938272,84.74074074074076,0)" xlink:href="#bd"/><use transform="matrix(0.04938271604938272,0,0,0.04938271604938272,95.55555555555557,0)" xlink:href="#bk"/></g><path fill="#333" d="M25 0v-261h50V0H25" id="bl"/><path fill="#333" d="M133-34C117-15 103 5 69 4 32 3 11-16 11-54c-1-60 55-63 116-61 1-26-3-47-28-47-18 1-26 9-28 27l-52-2c7-38 36-58 82-57s74 22 75 68l1 82c-1 14 12 18 25 15v27c-30 8-71 5-69-32zm-48 3c29 0 43-24 42-57-32 0-66-3-65 30 0 17 8 27 23 27" id="bm"/><g id="K"><use transform="matrix(0.04938271604938272,0,0,0.04938271604938272,0,0)" xlink:href="#ba"/><use transform="matrix(0.04938271604938272,0,0,0.04938271604938272,11.851851851851853,0)" xlink:href="#bl"/><use transform="matrix(0.04938271604938272,0,0,0.04938271604938272,16.790123456790127,0)" xlink:href="#bm"/><use transform="matrix(0.04938271604938272,0,0,0.04938271604938272,26.666666666666668,0)" xlink:href="#bk"/></g><path fill="#333" d="M153-248C145-148 188 4 80 4 36 3 13-21 6-62l32-5c4 25 16 42 43 43 27 0 39-20 39-49v-147H72v-28h81" id="bn"/><g id="L"><use transform="matrix(0.06172839506172839,0,0,0.06172839506172839,0,0)" xlink:href="#bn"/><use transform="matrix(0.06172839506172839,0,0,0.06172839506172839,11.11111111111111,0)" xlink:href="#aG"/><use transform="matrix(0.06172839506172839,0,0,0.06172839506172839,23.45679012345679,0)" xlink:href="#aC"/><use transform="matrix(0.06172839506172839,0,0,0.06172839506172839,35.80246913580247,0)" xlink:href="#ar"/></g><path fill="#333" d="M101-251c68 0 85 55 85 127S166 4 100 4C33 4 14-52 14-124c0-73 17-127 87-127zm-1 229c47 0 54-49 54-102s-4-102-53-102c-51 0-55 48-55 102 0 53 5 102 54 102" id="bo"/><g id="M"><use transform="matrix(0.06172839506172839,0,0,0.06172839506172839,0,0)" xlink:href="#aS"/><use transform="matrix(0.06172839506172839,0,0,0.06172839506172839,12.345679012345679,0)" xlink:href="#bo"/></g><path fill="#333" d="M16-82v-28h88v28H16" id="bp"/><use transform="matrix(0.06172839506172839,0,0,0.06172839506172839,0,0)" xlink:href="#bp" id="N"/><use transform="matrix(0.06172839506172839,0,0,0.06172839506172839,0,0)" xlink:href="#aT" id="O"/><g id="P"><use transform="matrix(0.06172839506172839,0,0,0.06172839506172839,0,0)" xlink:href="#aU"/><use transform="matrix(0.06172839506172839,0,0,0.06172839506172839,15.987654320987653,0)" xlink:href="#ar"/><use transform="matrix(0.06172839506172839,0,0,0.06172839506172839,28.333333333333332,0)" xlink:href="#as"/></g><path fill="#333" d="M240-174c0 40-23 61-54 70L253 0h-59l-57-94H76V0H24v-248c93 4 217-23 216 74zM76-134c48-2 112 12 112-38 0-48-66-32-112-35v73" id="bq"/><path fill="#333" d="M185-48c-13 30-37 53-82 52C43 2 14-33 14-96s30-98 90-98c62 0 83 45 84 108H66c0 31 8 55 39 56 18 0 30-7 34-22zm-45-69c5-46-57-63-70-21-2 6-4 13-4 21h74" id="br"/><path fill="#333" d="M231 0h-52l-39-155L100 0H48L-1-190h46L77-45c9-52 24-97 36-145h53l37 145 32-145h46" id="bs"/><path fill="#333" d="M88-194c31-1 46 15 58 34l-1-101h50l1 261h-48c-2-10 0-23-3-31C134-8 116 4 84 4 32 4 16-41 15-95c0-56 19-97 73-99zm17 164c33 0 40-30 41-66 1-37-9-64-41-64s-38 30-39 65c0 43 13 65 39 65" id="bt"/><g id="Q"><use transform="matrix(0.04938271604938272,0,0,0.04938271604938272,0,0)" xlink:href="#bq"/><use transform="matrix(0.04938271604938272,0,0,0.04938271604938272,12.790123456790125,0)" xlink:href="#br"/><use transform="matrix(0.04938271604938272,0,0,0.04938271604938272,22.66666666666667,0)" xlink:href="#bk"/><use transform="matrix(0.04938271604938272,0,0,0.04938271604938272,33.48148148148149,0)" xlink:href="#br"/><use transform="matrix(0.04938271604938272,0,0,0.04938271604938272,43.35802469135803,0)" xlink:href="#bs"/><use transform="matrix(0.04938271604938272,0,0,0.04938271604938272,57.18518518518519,0)" xlink:href="#br"/><use transform="matrix(0.04938271604938272,0,0,0.04938271604938272,67.06172839506173,0)" xlink:href="#bt"/></g><path fill="#333" d="M169-182c-1-43-94-46-97-3 18 66 151 10 154 114 3 95-165 93-204 36-6-8-10-19-12-30l50-8c3 46 112 56 116 5-17-69-150-10-154-114-4-87 153-88 188-35 5 8 8 18 10 28" id="bu"/><g id="R"><use transform="matrix(0.04938271604938272,0,0,0.04938271604938272,0,0)" xlink:href="#bu"/><use transform="matrix(0.04938271604938272,0,0,0.04938271604938272,11.851851851851853,0)" xlink:href="#bf"/><use transform="matrix(0.04938271604938272,0,0,0.04938271604938272,22.666666666666668,0)" xlink:href="#bg"/><use transform="matrix(0.04938271604938272,0,0,0.04938271604938272,33.48148148148148,0)" xlink:href="#be"/><use transform="matrix(0.04938271604938272,0,0,0.04938271604938272,43.358024691358025,0)" xlink:href="#bh"/><use transform="matrix(0.04938271604938272,0,0,0.04938271604938272,53.23456790123457,0)" xlink:href="#bb"/><use transform="matrix(0.04938271604938272,0,0,0.04938271604938272,60.14814814814815,0)" xlink:href="#bc"/><use transform="matrix(0.04938271604938272,0,0,0.04938271604938272,65.08641975308643,0)" xlink:href="#bi"/><use transform="matrix(0.04938271604938272,0,0,0.04938271604938272,75.90123456790124,0)" xlink:href="#bj"/><use transform="matrix(0.04938271604938272,0,0,0.04938271604938272,81.77777777777779,0)" xlink:href="#bc"/><use transform="matrix(0.04938271604938272,0,0,0.04938271604938272,86.71604938271605,0)" xlink:href="#bd"/><use transform="matrix(0.04938271604938272,0,0,0.04938271604938272,97.53086419753086,0)" xlink:href="#bk"/></g><path fill="#b2b2b2" d="M24-248c120-7 223 5 221 122C244-46 201 0 124 0H24v-248zM76-40c74 7 117-18 117-86 0-67-45-88-117-82v168" id="bv"/><path fill="#b2b2b2" d="M25-224v-37h50v37H25zM25 0v-190h50V0H25" id="bw"/><path fill="#b2b2b2" d="M137-138c1-29-70-34-71-4 15 46 118 7 119 86 1 83-164 76-172 9l43-7c4 19 20 25 44 25 33 8 57-30 24-41C81-84 22-81 20-136c-2-80 154-74 161-7" id="bx"/><path fill="#b2b2b2" d="M133-34C117-15 103 5 69 4 32 3 11-16 11-54c-1-60 55-63 116-61 1-26-3-47-28-47-18 1-26 9-28 27l-52-2c7-38 36-58 82-57s74 22 75 68l1 82c-1 14 12 18 25 15v27c-30 8-71 5-69-32zm-48 3c29 0 43-24 42-57-32 0-66-3-65 30 0 17 8 27 23 27" id="by"/><path fill="#b2b2b2" d="M25 0v-261h50V0H25" id="bz"/><path fill="#b2b2b2" d="M110-194c64 0 96 36 96 99 0 64-35 99-97 99-61 0-95-36-95-99 0-62 34-99 96-99zm-1 164c35 0 45-28 45-65 0-40-10-65-43-65-34 0-45 26-45 65 0 36 10 65 43 65" id="bA"/><path fill="#b2b2b2" d="M231 0h-52l-39-155L100 0H48L-1-190h46L77-45c9-52 24-97 36-145h53l37 145 32-145h46" id="bB"/><path fill="#b2b2b2" d="M185-48c-13 30-37 53-82 52C43 2 14-33 14-96s30-98 90-98c62 0 83 45 84 108H66c0 31 8 55 39 56 18 0 30-7 34-22zm-45-69c5-46-57-63-70-21-2 6-4 13-4 21h74" id="bC"/><path fill="#b2b2b2" d="M88-194c31-1 46 15 58 34l-1-101h50l1 261h-48c-2-10 0-23-3-31C134-8 116 4 84 4 32 4 16-41 15-95c0-56 19-97 73-99zm17 164c33 0 40-30 41-66 1-37-9-64-41-64s-38 30-39 65c0 43 13 65 39 65" id="bD"/><g id="S"><use transform="matrix(0.0728395061728395,0,0,0.0728395061728395,0,0)" xlink:href="#bv"/><use transform="matrix(0.0728395061728395,0,0,0.0728395061728395,18.86543209876543,0)" xlink:href="#bw"/><use transform="matrix(0.0728395061728395,0,0,0.0728395061728395,26.14938271604938,0)" xlink:href="#bx"/><use transform="matrix(0.0728395061728395,0,0,0.0728395061728395,40.717283950617286,0)" xlink:href="#by"/><use transform="matrix(0.0728395061728395,0,0,0.0728395061728395,55.28518518518518,0)" xlink:href="#bz"/><use transform="matrix(0.0728395061728395,0,0,0.0728395061728395,62.56913580246913,0)" xlink:href="#bz"/><use transform="matrix(0.0728395061728395,0,0,0.0728395061728395,69.85308641975308,0)" xlink:href="#bA"/><use transform="matrix(0.0728395061728395,0,0,0.0728395061728395,85.80493827160494,0)" xlink:href="#bB"/><use transform="matrix(0.0728395061728395,0,0,0.0728395061728395,106.2,0)" xlink:href="#bC"/><use transform="matrix(0.0728395061728395,0,0,0.0728395061728395,120.7679012345679,0)" xlink:href="#bD"/></g><path fill="#b2b2b2" d="M135-150c-39-12-60 13-60 57V0H25l-1-190h47c2 13-1 29 3 40 6-28 27-53 61-41v41" id="bE"/><path fill="#b2b2b2" d="M135-194c87-1 58 113 63 194h-50c-7-57 23-157-34-157-59 0-34 97-39 157H25l-1-190h47c2 12-1 28 3 38 12-26 28-41 61-42" id="bF"/><g id="T"><use transform="matrix(0.0728395061728395,0,0,0.0728395061728395,0,0)" xlink:href="#bE"/><use transform="matrix(0.0728395061728395,0,0,0.0728395061728395,10.19753086419753,0)" xlink:href="#bC"/><use transform="matrix(0.0728395061728395,0,0,0.0728395061728395,24.76543209876543,0)" xlink:href="#bF"/><use transform="matrix(0.0728395061728395,0,0,0.0728395061728395,40.717283950617286,0)" xlink:href="#bC"/><use transform="matrix(0.0728395061728395,0,0,0.0728395061728395,55.28518518518518,0)" xlink:href="#bB"/><use transform="matrix(0.0728395061728395,0,0,0.0728395061728395,75.68024691358023,0)" xlink:href="#by"/><use transform="matrix(0.0728395061728395,0,0,0.0728395061728395,90.24814814814813,0)" xlink:href="#bz"/></g><path fill="#b2b2b2" d="M115-3C79 11 28 4 28-45v-112H4v-33h27l15-45h31v45h36v33H77v99c-1 23 16 31 38 25v30" id="bG"/><g id="U"><use transform="matrix(0.0728395061728395,0,0,0.0728395061728395,0,0)" xlink:href="#bx"/><use transform="matrix(0.0728395061728395,0,0,0.0728395061728395,14.5679012345679,0)" xlink:href="#bG"/><use transform="matrix(0.0728395061728395,0,0,0.0728395061728395,23.235802469135802,0)" xlink:href="#by"/><use transform="matrix(0.0728395061728395,0,0,0.0728395061728395,37.803703703703704,0)" xlink:href="#bG"/><use transform="matrix(0.0728395061728395,0,0,0.0728395061728395,46.471604938271604,0)" xlink:href="#bC"/><use transform="matrix(0.0728395061728395,0,0,0.0728395061728395,61.0395061728395,0)" xlink:href="#bx"/></g><path fill="#b2b2b2" d="M205 0l-28-72H64L36 0H1l101-248h38L239 0h-34zm-38-99l-47-123c-12 45-31 82-46 123h93" id="bH"/><path fill="#b2b2b2" d="M24 0v-261h32V0H24" id="bI"/><path fill="#b2b2b2" d="M100-194c63 0 86 42 84 106H49c0 40 14 67 53 68 26 1 43-12 49-29l28 8c-11 28-37 45-77 45C44 4 14-33 15-96c1-61 26-98 85-98zm52 81c6-60-76-77-97-28-3 7-6 17-6 28h103" id="bJ"/><path fill="#b2b2b2" d="M141 0L90-78 38 0H4l68-98-65-92h35l48 74 47-74h35l-64 92 68 98h-35" id="bK"/><path fill="#b2b2b2" d="M141-36C126-15 110 5 73 4 37 3 15-17 15-53c-1-64 63-63 125-63 3-35-9-54-41-54-24 1-41 7-42 31l-33-3c5-37 33-52 76-52 45 0 72 20 72 64v82c-1 20 7 32 28 27v20c-31 9-61-2-59-35zM48-53c0 20 12 33 32 33 41-3 63-29 60-74-43 2-92-5-92 41" id="bL"/><path fill="#b2b2b2" d="M117-194c89-4 53 116 60 194h-32v-121c0-31-8-49-39-48C34-167 62-67 57 0H25l-1-190h30c1 10-1 24 2 32 11-22 29-35 61-36" id="bM"/><path fill="#b2b2b2" d="M85-194c31 0 48 13 60 33l-1-100h32l1 261h-30c-2-10 0-23-3-31C134-8 116 4 85 4 32 4 16-35 15-94c0-66 23-100 70-100zm9 24c-40 0-46 34-46 75 0 40 6 74 45 74 42 0 51-32 51-76 0-42-9-74-50-73" id="bN"/><path fill="#b2b2b2" d="M114-163C36-179 61-72 57 0H25l-1-190h30c1 12-1 29 2 39 6-27 23-49 58-41v29" id="bO"/><g id="V"><use transform="matrix(0.04248971193415638,0,0,0.04248971193415638,0,0)" xlink:href="#bH"/><use transform="matrix(0.04248971193415638,0,0,0.04248971193415638,10.19753086419753,0)" xlink:href="#bI"/><use transform="matrix(0.04248971193415638,0,0,0.04248971193415638,13.554218106995881,0)" xlink:href="#bJ"/><use transform="matrix(0.04248971193415638,0,0,0.04248971193415638,22.05216049382716,0)" xlink:href="#bK"/><use transform="matrix(0.04248971193415638,0,0,0.04248971193415638,29.700308641975308,0)" xlink:href="#bL"/><use transform="matrix(0.04248971193415638,0,0,0.04248971193415638,38.19825102880658,0)" xlink:href="#bM"/><use transform="matrix(0.04248971193415638,0,0,0.04248971193415638,46.69619341563786,0)" xlink:href="#bN"/><use transform="matrix(0.04248971193415638,0,0,0.04248971193415638,55.194135802469134,0)" xlink:href="#bJ"/><use transform="matrix(0.04248971193415638,0,0,0.04248971193415638,63.69207818930041,0)" xlink:href="#bO"/></g><path fill="#b2b2b2" d="M30-248c118-7 216 8 213 122C240-48 200 0 122 0H30v-248zM63-27c89 8 146-16 146-99s-60-101-146-95v194" id="bP"/><path fill="#b2b2b2" d="M84 4C-5 8 30-112 23-190h32v120c0 31 7 50 39 49 72-2 45-101 50-169h31l1 190h-30c-1-10 1-25-2-33-11 22-28 36-60 37" id="bQ"/><path fill="#b2b2b2" d="M135-143c-3-34-86-38-87 0 15 53 115 12 119 90S17 21 10-45l28-5c4 36 97 45 98 0-10-56-113-15-118-90-4-57 82-63 122-42 12 7 21 19 24 35" id="bR"/><path fill="#b2b2b2" d="M115-194c53 0 69 39 70 98 0 66-23 100-70 100C84 3 66-7 56-30L54 0H23l1-261h32v101c10-23 28-34 59-34zm-8 174c40 0 45-34 45-75 0-40-5-75-45-74-42 0-51 32-51 76 0 43 10 73 51 73" id="bS"/><path fill="#b2b2b2" d="M179-190L93 31C79 59 56 82 12 73V49c39 6 53-20 64-50L1-190h34L92-34l54-156h33" id="bT"/><g id="W"><use transform="matrix(0.04248971193415638,0,0,0.04248971193415638,0,0)" xlink:href="#bP"/><use transform="matrix(0.04248971193415638,0,0,0.04248971193415638,11.004835390946502,0)" xlink:href="#bQ"/><use transform="matrix(0.04248971193415638,0,0,0.04248971193415638,19.502777777777776,0)" xlink:href="#bR"/><use transform="matrix(0.04248971193415638,0,0,0.04248971193415638,27.150925925925925,0)" xlink:href="#bJ"/><use transform="matrix(0.04248971193415638,0,0,0.04248971193415638,35.6488683127572,0)" xlink:href="#bM"/><use transform="matrix(0.04248971193415638,0,0,0.04248971193415638,44.14681069958848,0)" xlink:href="#bS"/><use transform="matrix(0.04248971193415638,0,0,0.04248971193415638,52.64475308641975,0)" xlink:href="#bJ"/><use transform="matrix(0.04248971193415638,0,0,0.04248971193415638,61.14269547325104,0)" xlink:href="#bO"/><use transform="matrix(0.04248971193415638,0,0,0.04248971193415638,66.19897119341564,0)" xlink:href="#bT"/></g><path fill="#b2b2b2" d="M32 76v-337h29V76H32" id="bU"/><use transform="matrix(0.04248971193415638,0,0,0.04248971193415638,0,0)" xlink:href="#bU" id="X"/><path fill="#b2b2b2" d="M140-251c81 0 123 46 123 126C263-46 219 4 140 4 59 4 17-45 17-125s42-126 123-126zm0 227c63 0 89-41 89-101s-29-99-89-99c-61 0-89 39-89 99S79-25 140-24" id="bV"/><path fill="#b2b2b2" d="M96-169c-40 0-48 33-48 73s9 75 48 75c24 0 41-14 43-38l32 2c-6 37-31 61-74 61-59 0-76-41-82-99-10-93 101-131 147-64 4 7 5 14 7 22l-32 3c-4-21-16-35-41-35" id="bW"/><path fill="#b2b2b2" d="M59-47c-2 24 18 29 38 22v24C64 9 27 4 27-40v-127H5v-23h24l9-43h21v43h35v23H59v120" id="bX"/><path fill="#b2b2b2" d="M100-194c62-1 85 37 85 99 1 63-27 99-86 99S16-35 15-95c0-66 28-99 85-99zM99-20c44 1 53-31 53-75 0-43-8-75-51-75s-53 32-53 75 10 74 51 75" id="bY"/><g id="Y"><use transform="matrix(0.04248971193415638,0,0,0.04248971193415638,0,0)" xlink:href="#bV"/><use transform="matrix(0.04248971193415638,0,0,0.04248971193415638,11.897119341563785,0)" xlink:href="#bW"/><use transform="matrix(0.04248971193415638,0,0,0.04248971193415638,19.545267489711932,0)" xlink:href="#bX"/><use transform="matrix(0.04248971193415638,0,0,0.04248971193415638,23.79423868312757,0)" xlink:href="#bY"/><use transform="matrix(0.04248971193415638,0,0,0.04248971193415638,32.29218106995884,0)" xlink:href="#bS"/><use transform="matrix(0.04248971193415638,0,0,0.04248971193415638,40.79012345679012,0)" xlink:href="#bJ"/><use transform="matrix(0.04248971193415638,0,0,0.04248971193415638,49.288065843621396,0)" xlink:href="#bO"/></g><path fill="#b2b2b2" d="M126-127c33 6 58 20 58 59 0 88-139 92-164 29-3-8-5-16-6-25l32-3c6 27 21 44 54 44 32 0 52-15 52-46 0-38-36-46-79-43v-28c39 1 72-4 72-42 0-27-17-43-46-43-28 0-47 15-49 41l-32-3c6-42 35-63 81-64 48-1 79 21 79 65 0 36-21 52-52 59" id="bZ"/><path fill="#b2b2b2" d="M68-38c1 34 0 65-14 84H32c9-13 17-26 17-46H33v-38h35" id="ca"/><g id="Z"><use transform="matrix(0.04248971193415638,0,0,0.04248971193415638,0,0)" xlink:href="#bZ"/><use transform="matrix(0.04248971193415638,0,0,0.04248971193415638,8.497942386831275,0)" xlink:href="#ca"/></g><path fill="#b2b2b2" d="M101-251c82-7 93 87 43 132L82-64C71-53 59-42 53-27h129V0H18c2-99 128-94 128-182 0-28-16-43-45-43s-46 15-49 41l-32-3c6-41 34-60 81-64" id="cb"/><path fill="#b2b2b2" d="M101-251c68 0 85 55 85 127S166 4 100 4C33 4 14-52 14-124c0-73 17-127 87-127zm-1 229c47 0 54-49 54-102s-4-102-53-102c-51 0-55 48-55 102 0 53 5 102 54 102" id="cc"/><g id="aa"><use transform="matrix(0.04248971193415638,0,0,0.04248971193415638,0,0)" xlink:href="#cb"/><use transform="matrix(0.04248971193415638,0,0,0.04248971193415638,8.497942386831275,0)" xlink:href="#cc"/><use transform="matrix(0.04248971193415638,0,0,0.04248971193415638,16.99588477366255,0)" xlink:href="#cb"/><use transform="matrix(0.04248971193415638,0,0,0.04248971193415638,25.493827160493822,0)" xlink:href="#cb"/></g><path fill="#333" d="M205 0l-28-72H64L36 0H1l101-248h38L239 0h-34zm-38-99l-47-123c-12 45-31 82-46 123h93" id="cd"/><g id="ab"><use transform="matrix(0.06172839506172839,0,0,0.06172839506172839,0,0)" xlink:href="#cd"/><use transform="matrix(0.06172839506172839,0,0,0.06172839506172839,14.814814814814813,0)" xlink:href="#aC"/><use transform="matrix(0.06172839506172839,0,0,0.06172839506172839,27.160493827160494,0)" xlink:href="#aJ"/><use transform="matrix(0.06172839506172839,0,0,0.06172839506172839,39.50617283950617,0)" xlink:href="#aw"/><use transform="matrix(0.06172839506172839,0,0,0.06172839506172839,45.67901234567901,0)" xlink:href="#aL"/><use transform="matrix(0.06172839506172839,0,0,0.06172839506172839,58.02469135802469,0)" xlink:href="#ar"/><use transform="matrix(0.06172839506172839,0,0,0.06172839506172839,70.37037037037037,0)" xlink:href="#at"/></g><g id="ac"><use transform="matrix(0.06172839506172839,0,0,0.06172839506172839,0,0)" xlink:href="#aM"/><use transform="matrix(0.06172839506172839,0,0,0.06172839506172839,14.814814814814813,0)" xlink:href="#aG"/><use transform="matrix(0.06172839506172839,0,0,0.06172839506172839,27.160493827160494,0)" xlink:href="#aN"/><use transform="matrix(0.06172839506172839,0,0,0.06172839506172839,39.50617283950617,0)" xlink:href="#aA"/><use transform="matrix(0.06172839506172839,0,0,0.06172839506172839,50.61728395061728,0)" xlink:href="#av"/><use transform="matrix(0.06172839506172839,0,0,0.06172839506172839,61.72839506172839,0)" xlink:href="#at"/><use transform="matrix(0.06172839506172839,0,0,0.06172839506172839,69.07407407407408,0)" xlink:href="#ax"/><use transform="matrix(0.06172839506172839,0,0,0.06172839506172839,73.95061728395062,0)" xlink:href="#aH"/><use transform="matrix(0.06172839506172839,0,0,0.06172839506172839,86.2962962962963,0)" xlink:href="#aw"/><use transform="matrix(0.06172839506172839,0,0,0.06172839506172839,92.46913580246914,0)" xlink:href="#ax"/><use transform="matrix(0.06172839506172839,0,0,0.06172839506172839,97.34567901234568,0)" xlink:href="#aJ"/><use transform="matrix(0.06172839506172839,0,0,0.06172839506172839,109.69135802469137,0)" xlink:href="#aC"/></g><g id="ad"><use transform="matrix(0.06172839506172839,0,0,0.06172839506172839,0,0)" xlink:href="#aO"/><use transform="matrix(0.06172839506172839,0,0,0.06172839506172839,14.814814814814813,0)" xlink:href="#aE"/><use transform="matrix(0.06172839506172839,0,0,0.06172839506172839,19.691358024691354,0)" xlink:href="#au"/><use transform="matrix(0.06172839506172839,0,0,0.06172839506172839,32.03703703703703,0)" xlink:href="#aC"/></g><g id="ae"><use transform="matrix(0.06172839506172839,0,0,0.06172839506172839,0,0)" xlink:href="#aZ"/><use transform="matrix(0.06172839506172839,0,0,0.06172839506172839,15.987654320987653,0)" xlink:href="#ar"/><use transform="matrix(0.06172839506172839,0,0,0.06172839506172839,28.333333333333332,0)" xlink:href="#aC"/><use transform="matrix(0.06172839506172839,0,0,0.06172839506172839,40.67901234567901,0)" xlink:href="#as"/><use transform="matrix(0.06172839506172839,0,0,0.06172839506172839,56.666666666666664,0)" xlink:href="#au"/><use transform="matrix(0.06172839506172839,0,0,0.06172839506172839,69.01234567901234,0)" xlink:href="#aE"/></g><g id="af"><use transform="matrix(0.04938271604938272,0,0,0.04938271604938272,0,0)" xlink:href="#bi"/><use transform="matrix(0.04938271604938272,0,0,0.04938271604938272,10.814814814814815,0)" xlink:href="#bl"/><use transform="matrix(0.04938271604938272,0,0,0.04938271604938272,15.753086419753087,0)" xlink:href="#bm"/><use transform="matrix(0.04938271604938272,0,0,0.04938271604938272,25.629629629629633,0)" xlink:href="#bk"/></g><path fill="#333" d="M140-251c81 0 123 46 123 126C263-46 219 4 140 4 59 4 17-45 17-125s42-126 123-126zm0 227c63 0 89-41 89-101s-29-99-89-99c-61 0-89 39-89 99S79-25 140-24" id="ce"/><g id="ag"><use transform="matrix(0.06172839506172839,0,0,0.06172839506172839,0,0)" xlink:href="#ce"/><use transform="matrix(0.06172839506172839,0,0,0.06172839506172839,17.28395061728395,0)" xlink:href="#aw"/><use transform="matrix(0.06172839506172839,0,0,0.06172839506172839,23.456790123456788,0)" xlink:href="#aL"/><use transform="matrix(0.06172839506172839,0,0,0.06172839506172839,35.80246913580247,0)" xlink:href="#ar"/><use transform="matrix(0.06172839506172839,0,0,0.06172839506172839,48.148148148148145,0)" xlink:href="#at"/></g><g id="ah"><use transform="matrix(0.06172839506172839,0,0,0.06172839506172839,0,0)" xlink:href="#aH"/><use transform="matrix(0.06172839506172839,0,0,0.06172839506172839,12.345679012345679,0)" xlink:href="#aE"/><use transform="matrix(0.06172839506172839,0,0,0.06172839506172839,17.22222222222222,0)" xlink:href="#au"/><use transform="matrix(0.06172839506172839,0,0,0.06172839506172839,29.5679012345679,0)" xlink:href="#aC"/><use transform="matrix(0.06172839506172839,0,0,0.06172839506172839,41.913580246913575,0)" xlink:href="#aR"/></g><g id="ai"><use transform="matrix(0.06172839506172839,0,0,0.06172839506172839,0,0)" xlink:href="#aP"/><use transform="matrix(0.06172839506172839,0,0,0.06172839506172839,14.814814814814813,0)" xlink:href="#aQ"/><use transform="matrix(0.06172839506172839,0,0,0.06172839506172839,25.925925925925924,0)" xlink:href="#aH"/><use transform="matrix(0.06172839506172839,0,0,0.06172839506172839,38.2716049382716,0)" xlink:href="#ax"/><use transform="matrix(0.06172839506172839,0,0,0.06172839506172839,43.148148148148145,0)" xlink:href="#at"/><use transform="matrix(0.06172839506172839,0,0,0.06172839506172839,50.49382716049382,0)" xlink:href="#ar"/><use transform="matrix(0.06172839506172839,0,0,0.06172839506172839,62.8395061728395,0)" xlink:href="#aA"/></g><path fill="#333" d="M33 0v-38h34V0H33" id="cf"/><g id="aj"><use transform="matrix(0.06172839506172839,0,0,0.06172839506172839,0,0)" xlink:href="#aM"/><use transform="matrix(0.06172839506172839,0,0,0.06172839506172839,14.814814814814813,0)" xlink:href="#ar"/><use transform="matrix(0.06172839506172839,0,0,0.06172839506172839,27.160493827160494,0)" xlink:href="#aH"/><use transform="matrix(0.06172839506172839,0,0,0.06172839506172839,39.50617283950617,0)" xlink:href="#aw"/><use transform="matrix(0.06172839506172839,0,0,0.06172839506172839,45.67901234567901,0)" xlink:href="#cf"/></g><path fill="#333" d="M140-251c80 0 125 45 125 126S219 4 139 4C58 4 15-44 15-125s44-126 125-126zm-1 214c52 0 73-35 73-88 0-50-21-86-72-86-52 0-73 35-73 86s22 88 72 88" id="cg"/><path fill="#333" d="M114-157C55-157 80-60 75 0H25v-261h50l-1 109c12-26 28-41 61-42 86-1 58 113 63 194h-50c-7-57 23-157-34-157" id="ch"/><g id="ak"><use transform="matrix(0.04938271604938272,0,0,0.04938271604938272,0,0)" xlink:href="#cg"/><use transform="matrix(0.04938271604938272,0,0,0.04938271604938272,13.827160493827162,0)" xlink:href="#bj"/><use transform="matrix(0.04938271604938272,0,0,0.04938271604938272,19.703703703703706,0)" xlink:href="#ch"/><use transform="matrix(0.04938271604938272,0,0,0.04938271604938272,30.518518518518523,0)" xlink:href="#br"/><use transform="matrix(0.04938271604938272,0,0,0.04938271604938272,40.39506172839506,0)" xlink:href="#bb"/></g><g id="al"><use transform="matrix(0.04938271604938272,0,0,0.04938271604938272,0,0)" xlink:href="#bb"/><use transform="matrix(0.04938271604938272,0,0,0.04938271604938272,6.913580246913581,0)" xlink:href="#br"/><use transform="matrix(0.04938271604938272,0,0,0.04938271604938272,16.790123456790127,0)" xlink:href="#bk"/><use transform="matrix(0.04938271604938272,0,0,0.04938271604938272,27.604938271604947,0)" xlink:href="#br"/><use transform="matrix(0.04938271604938272,0,0,0.04938271604938272,37.48148148148149,0)" xlink:href="#bs"/><use transform="matrix(0.04938271604938272,0,0,0.04938271604938272,51.308641975308646,0)" xlink:href="#br"/><use transform="matrix(0.04938271604938272,0,0,0.04938271604938272,61.18518518518519,0)" xlink:href="#bt"/></g><g id="am"><use transform="matrix(0.06172839506172839,0,0,0.06172839506172839,0,0)" xlink:href="#aM"/><use transform="matrix(0.06172839506172839,0,0,0.06172839506172839,14.814814814814813,0)" xlink:href="#aG"/><use transform="matrix(0.06172839506172839,0,0,0.06172839506172839,27.160493827160494,0)" xlink:href="#aN"/><use transform="matrix(0.06172839506172839,0,0,0.06172839506172839,39.50617283950617,0)" xlink:href="#aA"/><use transform="matrix(0.06172839506172839,0,0,0.06172839506172839,50.61728395061728,0)" xlink:href="#av"/><use transform="matrix(0.06172839506172839,0,0,0.06172839506172839,61.72839506172839,0)" xlink:href="#at"/><use transform="matrix(0.06172839506172839,0,0,0.06172839506172839,69.07407407407408,0)" xlink:href="#ax"/><use transform="matrix(0.06172839506172839,0,0,0.06172839506172839,73.95061728395062,0)" xlink:href="#aH"/><use transform="matrix(0.06172839506172839,0,0,0.06172839506172839,86.2962962962963,0)" xlink:href="#aw"/><use transform="matrix(0.06172839506172839,0,0,0.06172839506172839,92.46913580246914,0)" xlink:href="#ax"/><use transform="matrix(0.06172839506172839,0,0,0.06172839506172839,97.34567901234568,0)" xlink:href="#aJ"/><use transform="matrix(0.06172839506172839,0,0,0.06172839506172839,109.69135802469137,0)" xlink:href="#aC"/></g><g id="an"><use transform="matrix(0.06172839506172839,0,0,0.06172839506172839,0,0)" xlink:href="#aO"/><use transform="matrix(0.06172839506172839,0,0,0.06172839506172839,14.814814814814813,0)" xlink:href="#aE"/><use transform="matrix(0.06172839506172839,0,0,0.06172839506172839,19.691358024691354,0)" xlink:href="#au"/><use transform="matrix(0.06172839506172839,0,0,0.06172839506172839,32.03703703703703,0)" xlink:href="#aC"/></g><g id="ao"><use transform="matrix(0.06172839506172839,0,0,0.06172839506172839,0,0)" xlink:href="#aZ"/><use transform="matrix(0.06172839506172839,0,0,0.06172839506172839,15.987654320987653,0)" xlink:href="#ar"/><use transform="matrix(0.06172839506172839,0,0,0.06172839506172839,28.333333333333332,0)" xlink:href="#aC"/><use transform="matrix(0.06172839506172839,0,0,0.06172839506172839,40.67901234567901,0)" xlink:href="#ar"/><use transform="matrix(0.06172839506172839,0,0,0.06172839506172839,53.02469135802469,0)" xlink:href="#as"/><use transform="matrix(0.06172839506172839,0,0,0.06172839506172839,69.01234567901234,0)" xlink:href="#ar"/><use transform="matrix(0.06172839506172839,0,0,0.06172839506172839,81.35802469135803,0)" xlink:href="#aD"/><use transform="matrix(0.06172839506172839,0,0,0.06172839506172839,93.70370370370371,0)" xlink:href="#az"/><use transform="matrix(0.06172839506172839,0,0,0.06172839506172839,99.87654320987654,0)" xlink:href="#aK"/><use transform="matrix(0.06172839506172839,0,0,0.06172839506172839,118.33333333333333,0)" xlink:href="#ar"/><use transform="matrix(0.06172839506172839,0,0,0.06172839506172839,130.679012345679,0)" xlink:href="#at"/><use transform="matrix(0.06172839506172839,0,0,0.06172839506172839,138.02469135802468,0)" xlink:href="#aB"/><use transform="matrix(0.06172839506172839,0,0,0.06172839506172839,150.37037037037035,0)" xlink:href="#ar"/><use transform="matrix(0.06172839506172839,0,0,0.06172839506172839,162.71604938271602,0)" xlink:href="#aD"/></g><g id="ap"><use transform="matrix(0.06172839506172839,0,0,0.06172839506172839,0,0)" xlink:href="#aH"/><use transform="matrix(0.06172839506172839,0,0,0.06172839506172839,12.345679012345679,0)" xlink:href="#aE"/><use transform="matrix(0.06172839506172839,0,0,0.06172839506172839,17.22222222222222,0)" xlink:href="#au"/><use transform="matrix(0.06172839506172839,0,0,0.06172839506172839,29.5679012345679,0)" xlink:href="#aC"/></g></defs></g></svg>